<svg width="807" height="111" viewBox="0 0 807 111" fill="none" xmlns="http://www.w3.org/2000/svg">
<g filter="url(#filter0_b_15:256)">
<path d="M250.829 84.784C251.203 84.7849 251.56 84.9383 251.824 85.2107C252.089 85.4831 252.237 85.8523 252.238 86.2375V105.762C252.238 106.148 252.09 106.518 251.825 106.79C251.561 107.063 251.203 107.216 250.829 107.216H128.169C127.795 107.215 127.438 107.062 127.174 106.789C126.909 106.517 126.761 106.148 126.76 105.762V86.2375C126.76 85.852 126.908 85.4823 127.173 85.2098C127.437 84.9372 127.795 84.784 128.169 84.784H250.829ZM250.829 84H128.169C127.594 84.0008 127.043 84.2368 126.636 84.6562C126.23 85.0757 126.001 85.6443 126 86.2375V105.762C126 106.356 126.229 106.925 126.636 107.344C127.042 107.764 127.594 108 128.169 108H250.831C251.406 107.999 251.957 107.763 252.364 107.344C252.77 106.924 252.999 106.356 253 105.762V86.2375C252.998 85.6442 252.769 85.0757 252.362 84.6564C251.955 84.2371 251.404 84.0011 250.829 84V84Z" fill="white"/>
<path d="M160.186 89.74C159.234 88.9273 157.922 88.522 156.252 88.522H150.701C150.548 88.522 150.427 88.5732 150.338 88.6714C150.248 88.7717 150.203 88.8987 150.203 89.0563V102.964C150.203 103.108 150.25 103.229 150.347 103.327C150.393 103.375 150.448 103.413 150.508 103.439C150.569 103.464 150.633 103.477 150.699 103.476H152.687C152.838 103.476 152.963 103.429 153.06 103.337C153.157 103.244 153.205 103.12 153.205 102.962V97.9654H156.249C157.92 97.9654 159.232 97.5703 160.184 96.7801C161.137 95.9899 161.613 94.8251 161.613 93.2877C161.615 91.7339 161.139 90.5527 160.186 89.74ZM157.982 94.9848C157.561 95.3758 156.95 95.5723 156.148 95.5723H153.166V90.9151H156.148C156.978 90.9151 157.595 91.1218 158.002 91.5354C158.409 91.9489 158.613 92.5262 158.613 93.2652C158.613 94.0206 158.403 94.5938 157.982 94.9848ZM173.768 97.3472C174.636 97.0339 175.313 96.5242 175.797 95.82C176.281 95.1158 176.521 94.2417 176.521 93.2038C176.521 91.7073 176.041 90.5548 175.083 89.7421C174.122 88.9294 172.795 88.524 171.097 88.524H165.732C165.58 88.524 165.459 88.5752 165.369 88.6735C165.28 88.7738 165.234 88.9007 165.234 89.0583V102.966C165.234 103.109 165.282 103.231 165.379 103.329C165.425 103.377 165.48 103.416 165.541 103.441C165.602 103.467 165.667 103.479 165.732 103.478H167.637C167.79 103.478 167.913 103.429 168.01 103.329C168.057 103.282 168.094 103.225 168.119 103.163C168.144 103.101 168.157 103.034 168.155 102.966V97.8385H170.993L173.644 102.901C173.739 103.071 173.85 103.211 173.975 103.319C174.1 103.426 174.271 103.479 174.493 103.479H176.398C176.51 103.478 176.618 103.431 176.698 103.349C176.741 103.309 176.775 103.26 176.798 103.205C176.822 103.15 176.833 103.091 176.832 103.03C176.832 102.959 176.813 102.881 176.771 102.795L173.767 97.3472H173.768ZM172.898 94.8353C172.483 95.212 171.862 95.4024 171.035 95.4024H168.156V90.9151H171.035C171.862 90.9151 172.485 91.1116 172.898 91.5026C173.313 91.8936 173.519 92.4525 173.519 93.1792C173.519 93.9059 173.311 94.4587 172.898 94.8353ZM190.297 100.999H183.338V97.1322H189.674C189.825 97.1322 189.95 97.0851 190.047 96.993C190.144 96.9009 190.192 96.776 190.192 96.6184V95.2734C190.192 95.1178 190.144 94.9889 190.047 94.8886C189.95 94.7883 189.827 94.7391 189.674 94.7391H183.338V91.0011H190.13C190.281 91.0011 190.406 90.954 190.503 90.8619C190.601 90.7697 190.648 90.6449 190.648 90.4872V89.0563C190.648 88.8987 190.601 88.7717 190.503 88.6714C190.406 88.5711 190.283 88.522 190.13 88.522H180.998C180.845 88.522 180.724 88.5732 180.635 88.6714C180.546 88.7717 180.5 88.8987 180.5 89.0563V102.964C180.5 103.108 180.548 103.229 180.645 103.327C180.691 103.375 180.745 103.413 180.806 103.439C180.866 103.464 180.931 103.477 180.996 103.476H190.295C190.446 103.476 190.571 103.429 190.668 103.337C190.765 103.244 190.813 103.12 190.813 102.962V101.508C190.813 101.353 190.763 101.229 190.668 101.134C190.573 101.046 190.45 100.999 190.297 100.999V100.999ZM207.711 88.5215H206.054C205.792 88.5215 205.584 88.6571 205.433 88.9273L201.437 96.5754L197.441 88.9273C197.288 88.6571 197.082 88.522 196.82 88.522H195.143C194.99 88.522 194.869 88.5732 194.78 88.6714C194.69 88.7717 194.645 88.8987 194.645 89.0563V102.964C194.645 103.108 194.692 103.229 194.79 103.327C194.835 103.375 194.89 103.413 194.951 103.439C195.012 103.465 195.077 103.477 195.143 103.476H196.923C197.074 103.476 197.195 103.427 197.286 103.327C197.375 103.226 197.421 103.105 197.421 102.964V93.7775L200.3 99.4173C200.479 99.7305 200.715 99.8882 201.005 99.8882H201.873C202.177 99.8882 202.405 99.7326 202.556 99.4173L205.435 93.7775V102.965C205.435 103.108 205.483 103.229 205.58 103.327C205.626 103.376 205.681 103.414 205.742 103.44C205.802 103.465 205.868 103.478 205.933 103.476H207.713C207.864 103.476 207.989 103.43 208.086 103.337C208.182 103.245 208.231 103.12 208.231 102.962V89.0542C208.231 88.8966 208.182 88.7697 208.086 88.6694C207.985 88.5713 207.85 88.5183 207.711 88.522V88.5215ZM215.184 88.5215H213.196C213.057 88.5215 212.94 88.5691 212.843 88.6612C212.746 88.7533 212.698 88.8782 212.698 89.0358V102.964C212.698 103.107 212.746 103.229 212.843 103.327C212.889 103.375 212.944 103.413 213.005 103.439C213.065 103.465 213.131 103.477 213.196 103.476H215.184C215.335 103.476 215.456 103.427 215.548 103.327C215.637 103.226 215.683 103.105 215.683 102.964V89.0358C215.683 88.8802 215.637 88.7554 215.548 88.6612C215.456 88.5691 215.335 88.522 215.184 88.522V88.5215ZM229.96 100.999H223.001V97.1322H229.337C229.488 97.1322 229.613 97.0851 229.71 96.993C229.807 96.9009 229.855 96.776 229.855 96.6184V95.2734C229.855 95.1178 229.807 94.9889 229.71 94.8886C229.613 94.7883 229.49 94.7391 229.337 94.7391H223.001V91.0011H229.793C229.944 91.0011 230.069 90.954 230.167 90.8619C230.264 90.7697 230.311 90.6449 230.311 90.4872V89.0563C230.311 88.8987 230.264 88.7717 230.167 88.6714C230.069 88.5711 229.946 88.522 229.793 88.522H220.661C220.509 88.522 220.388 88.5732 220.298 88.6714C220.209 88.7717 220.163 88.8987 220.163 89.0563V102.964C220.163 103.108 220.211 103.229 220.308 103.327C220.354 103.375 220.409 103.413 220.47 103.439C220.531 103.465 220.596 103.477 220.661 103.476H229.96C230.111 103.476 230.236 103.429 230.333 103.337C230.43 103.244 230.478 103.12 230.478 102.962V101.508C230.478 101.353 230.428 101.229 230.333 101.134C230.23 101.043 230.097 100.994 229.96 100.999V100.999ZM245.841 102.794L242.838 97.3472C243.707 97.0339 244.384 96.5242 244.868 95.82C245.352 95.1158 245.593 94.2417 245.593 93.2038C245.593 91.7073 245.112 90.5548 244.154 89.7421C243.193 88.9294 241.866 88.524 240.167 88.524H234.803C234.651 88.524 234.53 88.5752 234.44 88.6735C234.351 88.7738 234.305 88.9007 234.305 89.0583V102.966C234.305 103.109 234.353 103.231 234.45 103.329C234.496 103.377 234.551 103.416 234.612 103.441C234.673 103.467 234.738 103.479 234.803 103.478H236.708C236.861 103.478 236.984 103.429 237.082 103.329C237.129 103.282 237.166 103.225 237.19 103.163C237.215 103.101 237.228 103.034 237.226 102.966V97.8385H240.064L242.715 102.901C242.81 103.071 242.922 103.211 243.047 103.319C243.172 103.426 243.342 103.479 243.564 103.479H245.47C245.582 103.478 245.69 103.431 245.769 103.349C245.812 103.309 245.847 103.26 245.87 103.205C245.893 103.15 245.905 103.091 245.904 103.03C245.904 102.959 245.882 102.879 245.841 102.795V102.794ZM241.969 94.8353C241.554 95.212 240.933 95.4024 240.106 95.4024H237.226V90.9151H240.106C240.933 90.9151 241.556 91.1116 241.969 91.5026C242.384 91.8936 242.59 92.4525 242.59 93.1792C242.59 93.9059 242.382 94.4587 241.969 94.8353ZM145.824 95.8057C145.766 95.648 145.636 95.5007 145.431 95.3799L134.158 88.6673C133.586 88.3275 133.118 88.6059 133.118 89.2856V102.712C133.118 103.394 133.586 103.673 134.158 103.331L145.431 96.6163C145.635 96.4956 145.766 96.3461 145.824 96.1905C145.847 96.1271 145.859 96.0616 145.859 95.9981C145.859 95.9346 145.847 95.8691 145.824 95.8057H145.824Z" fill="white"/>
<g clip-path="url(#clip0_15:256)">
<path d="M333.552 15.7627C331.026 15.7617 328.557 16.5093 326.457 17.9111C324.356 19.3128 322.718 21.3059 321.75 23.6383C320.781 25.9707 320.526 28.5377 321.016 31.0151C321.507 33.4925 322.72 35.769 324.504 37.5569C326.287 39.3448 328.561 40.5639 331.037 41.0601C333.513 41.5563 336.081 41.3073 338.416 40.3447C340.75 39.382 342.747 37.7489 344.154 35.6516C345.561 33.5544 346.315 31.0872 346.32 28.5618C346.323 26.8826 345.995 25.2193 345.355 23.6669C344.715 22.1146 343.776 20.7036 342.59 19.5149C341.404 18.3261 339.995 17.3828 338.444 16.739C336.893 16.0951 335.231 15.7634 333.552 15.7627Z" fill="white"/>
<path d="M305.03 15.7627C303.241 15.7597 301.479 16.1973 299.899 17.0367C298.319 17.8762 296.971 19.0917 295.972 20.5759C294.671 18.6409 292.784 17.1735 290.588 16.3887C288.393 15.6039 286.003 15.5429 283.77 16.2148C281.537 16.8866 279.578 18.2558 278.18 20.1219C276.782 21.988 276.018 24.2529 276 26.5847V26.5847V26.683V40.5586H279.737V26.6261C279.744 24.7195 280.509 22.894 281.862 21.5512C283.216 20.2083 285.047 19.4582 286.954 19.4657C288.861 19.4733 290.686 20.2379 292.029 21.5914C293.372 22.9449 294.122 24.7764 294.114 26.683V40.5586H297.841V26.6571C297.891 24.7846 298.67 23.0057 300.012 21.699C301.355 20.3924 303.154 19.6612 305.027 19.6612C306.9 19.6612 308.699 20.3924 310.042 21.699C311.384 23.0057 312.163 24.7846 312.213 26.6571V40.5586H315.95V26.5847C315.925 23.7051 314.764 20.9518 312.718 18.9248C310.673 16.8978 307.909 15.7612 305.03 15.7627Z" fill="white"/>
<path d="M361.992 15.7679C359.128 15.7881 356.386 16.9338 354.36 18.9575C352.333 20.9813 351.184 23.7208 351.159 26.5847V26.6831V40.5586H354.896V26.6261C354.91 24.7335 355.67 22.9227 357.011 21.5872C358.352 20.2518 360.166 19.4997 362.059 19.4942H362.271V15.7627H361.997L361.992 15.7679Z" fill="white"/>
<path d="M378.33 15.7935C376.063 15.7934 373.836 16.397 371.879 17.5424C369.921 18.6877 368.304 20.3334 367.194 22.3105C366.083 24.2875 365.519 26.5247 365.559 28.792C365.599 31.0593 366.242 33.2751 367.421 35.2118C368.601 37.1484 370.275 38.7361 372.271 39.8117C374.268 40.8872 376.515 41.412 378.781 41.3319C381.047 41.2518 383.251 40.5699 385.167 39.3561C387.082 38.1423 388.64 36.4404 389.68 34.4253L386.414 32.6191C385.534 34.3765 384.104 35.7988 382.342 36.6704C380.581 37.542 378.583 37.8154 376.651 37.4491C374.72 37.0827 372.961 36.0966 371.641 34.6404C370.32 33.1841 369.511 31.337 369.335 29.3792H391.072C391.072 29.1204 391.114 28.8617 391.114 28.5925C391.117 26.9121 390.789 25.2475 390.148 23.6941C389.507 22.1407 388.566 20.7291 387.378 19.5401C386.191 18.3511 384.78 17.4082 383.227 16.7653C381.675 16.1223 380.011 15.7921 378.33 15.7935ZM369.703 25.8495C370.28 24.0142 371.428 22.4109 372.979 21.2728C374.53 20.1346 376.404 19.5209 378.328 19.5209C380.252 19.5209 382.125 20.1346 383.677 21.2728C385.228 22.4109 386.375 24.0142 386.953 25.8495H369.703Z" fill="white"/>
<path d="M398.5 36.273C398.03 36.2719 397.57 36.4104 397.179 36.6708C396.787 36.9312 396.482 37.3019 396.301 37.7358C396.121 38.1698 396.073 38.6476 396.164 39.1088C396.255 39.5699 396.481 39.9937 396.813 40.3265C397.145 40.6592 397.568 40.886 398.029 40.9781C398.49 41.0701 398.968 41.0234 399.403 40.8437C399.837 40.6641 400.208 40.3596 400.47 39.9688C400.731 39.5781 400.87 39.1186 400.87 38.6485C400.87 38.0194 400.621 37.4159 400.176 36.9706C399.732 36.5252 399.129 36.2743 398.5 36.273Z" fill="white"/>
<path d="M412.173 12H408.436V15.7367H404.694V19.2457H408.436V29.6382V29.7365C408.461 32.6005 409.61 35.34 411.637 37.3637C413.663 39.3874 416.405 40.5331 419.269 40.5534H419.543V36.8425H419.362C417.469 36.8371 415.655 36.085 414.314 34.7495C412.972 33.4141 412.212 31.6033 412.199 29.7106V19.2457H419.574V15.7367H412.173V12Z" fill="white"/>
<path d="M446.803 15.7834L436.943 36.2422L427.084 15.7834L427.011 15.7368H422.892L434.837 40.5742H439.05L451 15.7834H446.803Z" fill="white"/>
</g>
<g clip-path="url(#clip1_15:256)">
<path fill-rule="evenodd" clip-rule="evenodd" d="M205.407 35.335C198.905 40.1214 189.482 42.6751 181.368 42.6751C169.992 42.6751 159.751 38.4724 152.003 31.4825C151.394 30.9329 151.939 30.1838 152.67 30.6118C161.032 35.4712 171.37 38.3946 182.05 38.3946C189.253 38.3946 197.176 36.9061 204.462 33.8173C205.562 33.3504 206.483 34.5373 205.407 35.335Z" fill="white"/>
<path fill-rule="evenodd" clip-rule="evenodd" d="M208.109 32.2462C207.281 31.1858 202.616 31.7452 200.522 31.9933C199.884 32.0711 199.786 31.5166 200.361 31.1177C204.077 28.5056 210.174 29.2596 210.885 30.1351C211.596 31.0156 210.7 37.1202 207.208 40.0338C206.672 40.4814 206.161 40.243 206.4 39.6496C207.184 37.6942 208.942 33.3115 208.109 32.2462Z" fill="white"/>
<path fill-rule="evenodd" clip-rule="evenodd" d="M200.668 12.6775V10.1384C200.668 9.75414 200.96 9.49634 201.311 9.49634H212.692C213.057 9.49634 213.35 9.75901 213.35 10.1384V12.3127C213.345 12.6775 213.038 13.1542 212.492 13.9082L206.595 22.3184C208.786 22.2649 211.1 22.5908 213.087 23.7096C213.535 23.9625 213.656 24.3322 213.69 24.697V27.4064C213.69 27.7761 213.281 28.209 212.853 27.9853C209.351 26.1515 204.701 25.952 200.829 28.0047C200.434 28.2188 200.021 27.7907 200.021 27.421V24.8478C200.021 24.4344 200.025 23.7291 200.439 23.1016L207.272 13.3148H201.326C200.96 13.3148 200.668 13.057 200.668 12.6775Z" fill="white"/>
<path fill-rule="evenodd" clip-rule="evenodd" d="M159.151 28.5203H155.689C155.358 28.496 155.095 28.2479 155.07 27.9317V10.1822C155.07 9.82708 155.367 9.54496 155.737 9.54496H158.966C159.302 9.55954 159.57 9.81735 159.594 10.1384V12.4586H159.658C160.5 10.2162 162.083 9.17041 164.216 9.17041C166.383 9.17041 167.737 10.2162 168.711 12.4586C169.549 10.2162 171.453 9.17041 173.493 9.17041C174.945 9.17041 176.532 9.76871 177.501 11.1112C178.597 12.6046 178.373 14.774 178.373 16.6759L178.368 27.8782C178.368 28.2333 178.071 28.5203 177.701 28.5203H174.243C173.898 28.496 173.62 28.2187 173.62 27.8782V18.4708C173.62 17.7217 173.688 15.8539 173.523 15.1437C173.264 13.9519 172.49 13.6163 171.487 13.6163C170.649 13.6163 169.773 14.1757 169.417 15.0707C169.062 15.9657 169.096 17.4639 169.096 18.4708V27.8782C169.096 28.2333 168.799 28.5203 168.429 28.5203H164.971C164.62 28.496 164.348 28.2187 164.348 27.8782L164.343 18.4708C164.343 16.4911 164.669 13.5774 162.21 13.5774C159.721 13.5774 159.819 16.4181 159.819 18.4708V27.8782C159.819 28.2333 159.521 28.5203 159.151 28.5203" fill="white"/>
<path fill-rule="evenodd" clip-rule="evenodd" d="M223.147 9.17041C228.285 9.17041 231.066 13.5774 231.066 19.181C231.066 24.5949 227.993 28.89 223.147 28.89C218.102 28.89 215.355 24.483 215.355 18.9913C215.355 13.4655 218.136 9.17041 223.147 9.17041ZM223.177 12.7943C220.625 12.7943 220.464 16.2673 220.464 18.4319C220.464 20.6013 220.43 25.2321 223.147 25.2321C225.831 25.2321 225.957 21.4964 225.957 19.2199C225.957 17.7217 225.894 15.9317 225.441 14.5113C225.052 13.2758 224.277 12.7943 223.177 12.7943Z" fill="white"/>
<path fill-rule="evenodd" clip-rule="evenodd" d="M237.728 28.5203H234.281C233.935 28.496 233.657 28.2187 233.657 27.8782L233.652 10.1238C233.682 9.79789 233.969 9.54496 234.32 9.54496H237.529C237.831 9.55954 238.079 9.76385 238.147 10.0411V12.7553H238.211C239.18 10.3281 240.538 9.17041 242.93 9.17041C244.483 9.17041 245.998 9.7298 246.972 11.262C247.877 12.6824 247.877 15.0707 247.877 16.7878V27.9609C247.838 28.2722 247.551 28.5203 247.21 28.5203H243.738C243.421 28.496 243.158 28.2625 243.124 27.9609V18.32C243.124 16.3792 243.348 13.5385 240.957 13.5385C240.115 13.5385 239.34 14.1027 238.956 14.9588C238.469 16.0436 238.405 17.1234 238.405 18.32V27.8782C238.401 28.2333 238.099 28.5203 237.728 28.5203" fill="white"/>
<path fill-rule="evenodd" clip-rule="evenodd" d="M191.595 20.0418C191.595 21.3892 191.629 22.5128 190.947 23.7094C190.397 24.6823 189.521 25.2806 188.551 25.2806C187.222 25.2806 186.443 24.2688 186.443 22.7755C186.443 19.8278 189.087 19.2927 191.595 19.2927V20.0418ZM195.087 28.4715C194.858 28.6758 194.527 28.6904 194.269 28.5542C193.119 27.6008 192.91 27.1582 192.282 26.2486C190.383 28.1845 189.034 28.7634 186.574 28.7634C183.657 28.7634 181.393 26.9685 181.393 23.3738C181.393 20.5671 182.912 18.6555 185.084 17.7216C186.964 16.8946 189.589 16.7487 191.595 16.5201V16.0726C191.595 15.2505 191.658 14.2777 191.171 13.5675C190.753 12.9303 189.944 12.6676 189.228 12.6676C187.909 12.6676 186.735 13.3438 186.448 14.7447C186.389 15.056 186.16 15.3624 185.844 15.377L182.488 15.017C182.206 14.9538 181.889 14.7252 181.972 14.2923C182.742 10.2258 186.423 9 189.715 9C191.4 9 193.602 9.44751 194.931 10.7219C196.616 12.2931 196.455 14.3896 196.455 16.6709V22.0605C196.455 23.6802 197.127 24.3904 197.76 25.266C197.98 25.5773 198.028 25.9518 197.746 26.1853C197.04 26.7739 195.783 27.8683 195.092 28.4812L195.087 28.4715" fill="white"/>
<path fill-rule="evenodd" clip-rule="evenodd" d="M146.203 20.0418C146.203 21.3892 146.237 22.5128 145.555 23.7094C145.005 24.6823 144.133 25.2806 143.159 25.2806C141.829 25.2806 141.055 24.2688 141.055 22.7755C141.055 19.8278 143.699 19.2927 146.203 19.2927V20.0418ZM149.694 28.4715C149.465 28.6758 149.134 28.6904 148.876 28.5542C147.727 27.6008 147.522 27.1582 146.889 26.2486C144.99 28.1845 143.646 28.7634 141.182 28.7634C138.269 28.7634 136 26.9685 136 23.3738C136 20.5671 137.524 18.6555 139.691 17.7216C141.571 16.8946 144.196 16.7487 146.203 16.5201V16.0726C146.203 15.2505 146.266 14.2777 145.784 13.5675C145.36 12.9303 144.552 12.6676 143.841 12.6676C142.521 12.6676 141.342 13.3438 141.055 14.7447C140.997 15.056 140.768 15.3624 140.456 15.377L137.096 15.017C136.813 14.9538 136.502 14.7252 136.58 14.2923C137.354 10.2258 141.031 9 144.323 9C146.008 9 148.209 9.44751 149.538 10.7219C151.223 12.2931 151.063 14.3896 151.063 16.6709V22.0605C151.063 23.6802 151.735 24.3904 152.368 25.266C152.592 25.5773 152.641 25.9518 152.358 26.1853C151.652 26.7739 150.396 27.8683 149.704 28.4812L149.694 28.4715" fill="white"/>
</g>
<g clip-path="url(#clip2_15:256)">
<path d="M33.8153 17.7901C33.4159 16.3051 32.2399 15.1304 30.7533 14.7314C28.0684 14 17.2626 14 17.2626 14C17.2626 14 6.45685 14.0222 3.77204 14.7536C2.28541 15.1525 1.10942 16.3273 0.710032 17.8123C-5.29015e-08 20.4941 0 26.1017 0 26.1017C0 26.1017 -5.29015e-08 31.7093 0.73222 34.4133C1.13161 35.8983 2.3076 37.073 3.79423 37.472C6.47904 38.2034 17.2848 38.2034 17.2848 38.2034C17.2848 38.2034 28.0906 38.2034 30.7754 37.472C32.2621 37.073 33.4381 35.8983 33.8375 34.4133C34.5697 31.7314 34.5697 26.1017 34.5697 26.1017C34.5697 26.1017 34.5475 20.4941 33.8153 17.7901Z" fill="white"/>
<path d="M13.8232 31.2879L22.7874 26.1015L13.8232 20.915V31.2879Z" fill="#03071E"/>
<path d="M50.1468 36.0558C49.4589 35.5904 48.9708 34.8811 48.6823 33.9059C48.3939 32.9306 48.2607 31.6451 48.2607 30.0271V27.8329C48.2607 26.2149 48.4161 24.885 48.7489 23.9098C49.0817 22.9124 49.5921 22.2031 50.3021 21.7598C51.0121 21.3166 51.9218 21.0728 53.0535 21.0728C54.1629 21.0728 55.0726 21.2944 55.7383 21.7598C56.4039 22.2253 56.9142 22.9346 57.2249 23.9098C57.5355 24.885 57.6908 26.1927 57.6908 27.8107V30.005C57.6908 31.623 57.5355 32.9085 57.2249 33.8837C56.9142 34.8589 56.4261 35.5682 55.7383 36.0336C55.0504 36.4769 54.1185 36.7207 52.9647 36.7207C51.7665 36.7429 50.8346 36.4991 50.1468 36.0558ZM53.9854 33.6842C54.1851 33.1966 54.2738 32.3765 54.2738 31.2683V26.5473C54.2738 25.4613 54.1851 24.6634 53.9854 24.1758C53.7857 23.666 53.4528 23.4222 52.9869 23.4222C52.5209 23.4222 52.2103 23.666 52.0106 24.1758C51.8109 24.6855 51.7221 25.4613 51.7221 26.5473V31.2683C51.7221 32.3765 51.8109 33.1966 51.9884 33.6842C52.1659 34.1718 52.4987 34.4157 52.9869 34.4157C53.4528 34.4157 53.7857 34.1718 53.9854 33.6842Z" fill="white"/>
<path d="M102.622 30.0715V30.8472C102.622 31.8224 102.644 32.5539 102.711 33.0415C102.778 33.5291 102.888 33.8837 103.066 34.1054C103.243 34.327 103.532 34.4378 103.909 34.4378C104.419 34.4378 104.775 34.2383 104.952 33.8394C105.152 33.4404 105.24 32.7755 105.263 31.8668L108.214 32.0441C108.236 32.1771 108.236 32.3544 108.236 32.576C108.236 33.9724 107.859 35.0141 107.082 35.7012C106.306 36.3883 105.24 36.7429 103.843 36.7429C102.156 36.7429 100.98 36.211 100.315 35.1692C99.649 34.1275 99.2939 32.4874 99.2939 30.2931V27.6112C99.2939 25.3505 99.649 23.6881 100.337 22.6464C101.047 21.6047 102.245 21.0728 103.931 21.0728C105.107 21.0728 105.995 21.2944 106.616 21.7155C107.237 22.1366 107.681 22.8016 107.947 23.7103C108.214 24.619 108.325 25.8602 108.325 27.4561V30.0493H102.622V30.0715ZM103.066 23.6881C102.888 23.9098 102.778 24.2422 102.711 24.7299C102.644 25.2175 102.622 25.9489 102.622 26.9463V28.0323H105.107V26.9463C105.107 25.9711 105.085 25.2396 105.019 24.7299C104.952 24.2201 104.841 23.8655 104.664 23.666C104.486 23.4665 104.22 23.3557 103.865 23.3557C103.488 23.3778 103.221 23.4887 103.066 23.6881Z" fill="white"/>
<path d="M41.8478 29.7837L37.9648 15.7759H41.3597L42.7132 22.1149C43.0682 23.6885 43.3123 25.0184 43.4898 26.1044H43.5785C43.6895 25.3065 43.9557 23.9988 44.3551 22.137L45.753 15.7759H49.1478L45.2205 29.7615V36.4773H41.87V29.7837H41.8478Z" fill="white"/>
<path d="M68.6955 21.3613V36.4995H66.0329L65.7445 34.6377H65.6779C64.9457 36.0341 63.8584 36.7433 62.4162 36.7433C61.4177 36.7433 60.6633 36.4109 60.1973 35.746C59.7092 35.081 59.4873 34.0615 59.4873 32.6651V21.3613H62.9043V32.4656C62.9043 33.1306 62.9709 33.6182 63.1262 33.9063C63.2815 34.1944 63.5256 34.3274 63.8584 34.3274C64.1469 34.3274 64.4353 34.2388 64.7016 34.0615C64.9679 33.8841 65.1676 33.6403 65.3007 33.3744V21.3613H68.6955Z" fill="white"/>
<path d="M86.2024 21.3613V36.4995H83.5397L83.2513 34.6377H83.1847C82.4525 36.0341 81.3653 36.7433 79.923 36.7433C78.9245 36.7433 78.1701 36.4109 77.7042 35.746C77.216 35.081 76.9941 34.0615 76.9941 32.6651V21.3613H80.4112V32.4656C80.4112 33.1306 80.4777 33.6182 80.633 33.9063C80.7884 34.1944 81.0324 34.3274 81.3653 34.3274C81.6537 34.3274 81.9422 34.2388 82.2084 34.0615C82.4747 33.8841 82.6744 33.6403 82.8075 33.3744V21.3613H86.2024Z" fill="white"/>
<path d="M77.9705 18.5243H74.5756V36.4995H71.2474V18.5243H67.8525V15.7759H77.9483V18.5243H77.9705Z" fill="white"/>
<path d="M97.4746 23.7771C97.2749 22.824 96.942 22.1369 96.4761 21.6936C96.0101 21.2725 95.3888 21.0508 94.5679 21.0508C93.9466 21.0508 93.3475 21.2282 92.815 21.5828C92.2603 21.9374 91.8609 22.4029 91.5502 22.9791H91.528V15H88.2441V36.4772H91.0621L91.4171 35.0365H91.4837C91.7499 35.5463 92.1493 35.9453 92.6597 36.2556C93.1922 36.5437 93.7691 36.6988 94.4125 36.6988C95.5663 36.6988 96.4095 36.1669 96.9642 35.103C97.4967 34.0391 97.7852 32.3768 97.7852 30.1382V27.7445C97.7852 26.06 97.6743 24.7301 97.4746 23.7771ZM94.346 29.9609C94.346 31.0691 94.3016 31.9335 94.2128 32.5541C94.1241 33.1747 93.9688 33.618 93.7469 33.884C93.525 34.1499 93.2366 34.2829 92.8815 34.2829C92.5931 34.2829 92.349 34.2164 92.1049 34.0835C91.8609 33.9505 91.6834 33.751 91.528 33.485V24.8853C91.639 24.4642 91.8387 24.1317 92.1271 23.8657C92.4156 23.5997 92.704 23.4668 93.0369 23.4668C93.3919 23.4668 93.6581 23.5997 93.8356 23.8657C94.0353 24.1317 94.1463 24.5971 94.235 25.2399C94.3016 25.8827 94.346 26.7914 94.346 27.9883V29.9609Z" fill="white"/>
</g>
<path d="M523.037 26.2757C523.091 26.2831 523.102 26.2852 523.154 26.292C524.028 26.4107 524.886 26.568 525.544 26.8616C526.152 27.1303 526.509 27.4703 526.835 28.0765C527.331 28.9957 527.363 30.2834 526.915 31.258C526.581 31.9832 525.846 32.5914 525.176 32.9137C524.48 33.251 523.794 33.4116 523.007 33.5014C521.631 33.6528 520.145 33.3679 518.907 32.7694C518.174 32.4119 517.28 31.7963 516.828 31.0031C516.496 30.422 516.507 29.666 516.911 29.1137C517.554 28.2335 518.933 28.0398 519.971 28.0765C520.762 28.1071 522.187 28.3516 522.939 28.6188C523.147 28.694 523.915 28.9931 524.049 29.1302C524.143 29.2256 524.205 29.3642 524.162 29.4924C523.99 30.0172 522.714 30.2939 522.346 30.3494C521.359 30.5005 520.847 30.1273 519.726 29.6848C519.448 29.5759 519.077 29.455 518.793 29.4288C518.284 29.3803 517.669 29.5228 517.572 30.0783C517.523 30.3646 517.859 30.6323 518.116 30.7448C518.717 31.0031 519.206 31.096 519.798 31.1039C521.547 31.1327 523.513 30.8449 524.944 29.8319C525.14 29.6922 525.332 29.4877 525.334 29.23C525.34 28.7095 524.427 28.3913 524.427 28.3913C523.463 27.9897 521.683 27.7943 520.766 27.7188C519.803 27.6355 518.288 27.511 517.925 27.4574C517.55 27.404 517.143 27.3285 516.819 27.1833C516.493 27.0362 516.175 26.7071 516.08 26.343C515.913 25.6866 516.127 24.8813 516.491 24.3569C517.447 22.9835 519.686 22.4619 521.359 22.2547C522.978 22.0534 525.596 22.0554 527.186 22.8999C527.432 23.0315 527.557 23.1538 527.506 23.4161C527.402 23.9086 527.032 24.226 526.583 24.3651C526.112 24.5148 525.138 24.5732 524.71 24.6002C522.793 24.7076 520.476 24.6512 518.65 25.1489C518.506 25.1897 518.259 25.2563 518.179 25.346C517.893 25.6561 518.71 25.7447 518.884 25.7802C518.936 25.7926 518.947 25.7943 519.001 25.8003L523.037 26.2757ZM511.631 17.7318C511.631 17.7318 511.943 17.2644 512.204 16.9098C512.68 16.2639 513.541 15.3683 514.189 14.8138C514.388 14.6445 514.621 14.4526 514.621 14.4526C514.621 14.4526 514.256 14.4904 514.048 14.5328C513.556 14.6285 512.835 15.1077 512.475 15.4173C511.88 15.9261 511.226 16.7533 511.522 17.4883C511.565 17.5921 511.631 17.7318 511.631 17.7318ZM514.937 18.6161C515.877 18.5513 516.757 18.281 517.577 17.8267C518.38 17.3773 519.562 16.501 519.44 15.4708C519.402 15.1373 519.184 14.8856 518.908 14.7681C518.55 14.6129 518.363 14.6379 517.905 14.7739C517.572 14.8711 517.423 14.9302 517.108 15.1098C516.187 15.645 514.88 16.7904 514.17 17.7046C514.006 17.9202 513.841 18.1612 513.711 18.3265C513.629 18.4284 513.565 18.522 513.573 18.5469C513.602 18.6505 514.57 18.641 514.937 18.6161ZM512.545 20.3722C512.448 20.4747 512.345 20.7217 512.239 20.9006C512.182 20.9962 512.077 21.1194 512.007 21.1689C511.763 21.3486 511.556 21.3569 511.32 21.1493C510.989 20.8566 510.797 20.404 510.783 19.9637C510.776 19.7716 510.809 19.559 510.773 19.397C510.713 19.1236 510.439 18.8419 510.291 18.5804C510.118 18.2724 509.978 17.7354 509.96 17.3886C509.901 16.3075 510.471 15.3115 511.212 14.526C511.958 13.7317 512.934 13.0715 513.995 12.6221C514.999 12.1998 516.469 11.9118 517.571 12.2932C517.93 12.416 518.429 12.7211 518.68 13.0407C518.734 13.107 518.777 13.1788 518.832 13.2138C518.881 13.2451 519.009 13.2574 519.111 13.2761C519.462 13.337 519.968 13.6029 520.175 13.78C520.59 14.138 520.818 14.4802 520.923 14.9768C521.134 15.976 520.558 17.0723 519.903 17.7396C518.78 18.8879 517.671 19.6953 516.234 20.2574C515.603 20.5037 514.62 20.7338 513.904 20.6695C513.682 20.651 513.454 20.5925 513.237 20.5781C513.127 20.5686 512.723 20.4645 512.68 20.4352C512.626 20.394 512.557 20.3583 512.545 20.3722ZM513.828 22.5877C513.872 22.5951 513.939 22.6146 513.997 22.6369C514.501 22.8284 514.708 23.2942 514.832 23.8058C515.119 24.9939 515.242 27.6223 515.29 28.6511C515.325 29.4234 515.344 30.1831 515.377 30.9464C515.404 31.5928 515.456 32.4521 515.321 33.0577C515.272 33.2755 515.126 33.5289 514.917 33.6586C514.678 33.8115 514.134 33.8232 513.835 33.7615C513.098 33.6091 512.858 33.1353 512.753 32.4065C512.503 30.6675 512.623 27.2545 512.771 25.8144C512.82 25.3387 512.999 23.8146 513.248 23.1756C513.332 22.9601 513.513 22.5261 513.828 22.5877ZM491.395 25.481C491.395 25.481 490.298 25.5587 489.543 25.6424C488.582 25.7459 486.776 26.0574 485.734 26.4294C485.421 26.5413 484.786 26.8069 484.731 27.1281C484.673 27.4611 484.88 27.7215 485.11 27.9909C485.243 28.1474 485.995 28.871 486.206 29.0469C487.091 29.7851 488.885 30.9235 490.206 31.4764C490.66 31.664 491.411 31.9327 491.411 31.9327C491.411 31.9327 491.356 29.7958 491.366 27.6909C491.371 26.5804 491.395 25.481 491.395 25.481ZM511.518 26.3315C511.581 26.9056 511.434 27.991 511.408 28.1342C511.361 28.4642 511.112 29.2253 511.071 29.3182C510.87 29.7808 510.672 30.1598 510.462 30.5379C510.102 31.1851 509.246 32.2113 508.738 32.6504C506.849 34.2822 503.925 35.2112 501.416 35.5173C499.714 35.7228 497.757 35.6926 495.954 35.3591C495.333 35.2462 494.409 35.0334 494.409 35.0334C494.409 35.0334 494.412 35.4026 494.382 35.6622C494.368 35.7807 494.279 36.0924 494.229 36.1934C494.098 36.4642 493.882 36.6039 493.569 36.664C493.191 36.7341 492.79 36.7574 492.441 36.6082C491.868 36.3671 491.662 35.8311 491.562 35.2128C491.481 34.7183 491.397 33.8587 491.397 33.8587C491.397 33.8587 490.968 33.6557 490.61 33.4774C489.512 32.9365 488.468 32.281 487.556 31.607C487.303 31.4184 486.216 30.5091 485.977 30.2833C485.304 29.6454 484.699 29.0107 484.239 28.1963C483.881 27.5601 483.778 26.9954 484.05 26.3213C484.426 25.3817 485.774 24.6742 486.696 24.271C487.373 23.9723 489.479 23.2852 490.354 23.1578C490.767 23.0988 491.407 22.9841 491.447 22.9585C491.463 22.9462 491.474 22.9357 491.486 22.9224C491.506 22.894 491.54 21.9639 491.533 21.6236C491.525 21.2891 491.781 19.0919 491.863 18.6272C491.906 18.376 492.097 17.4087 492.291 17.1548C492.418 16.9832 492.643 16.9971 492.827 17.1097C493.83 17.7332 494.135 19.8952 494.209 20.9953C494.254 21.6655 494.276 22.6737 494.276 22.6737C494.276 22.6737 495.427 22.6396 496.135 22.6597C496.823 22.6757 497.581 22.7842 498.295 22.8979C499.209 23.0444 500.991 23.4328 502.013 23.9506C502.854 24.3769 503.642 25.0952 503.897 25.8554C504.134 26.5523 504.099 27.0346 503.737 27.6635C503.331 28.3737 502.563 28.9015 501.785 28.9457C501.553 28.959 500.681 28.8432 500.412 28.6355C500.307 28.5528 500.312 28.4034 500.388 28.3021C500.417 28.2665 500.825 28.0498 501.066 27.9234C501.186 27.8579 501.286 27.7872 501.38 27.7014C501.58 27.5255 501.76 27.3318 501.74 27.1048C501.712 26.8101 501.4 26.6283 501.103 26.5114C499.707 25.9574 496.921 25.4975 495.575 25.4179C495.048 25.387 494.298 25.3605 494.298 25.3605L494.457 32.7906C494.457 32.7906 495.077 32.9085 495.565 32.9876C495.845 33.0301 497.033 33.1369 497.348 33.1447C499.751 33.2081 502.432 32.9931 504.637 31.9533C505.605 31.4981 506.493 30.9313 507.165 30.164C508.051 29.1487 508.515 27.7593 508.393 26.308C508.258 24.7231 507.142 22.8416 506.25 21.6959C503.895 18.6692 499.858 16.1794 496.307 14.7197C492.681 13.2304 489.098 12.3737 485.249 12.2302C484.257 12.1935 482.094 12.2435 481.001 12.5457C480.845 12.5897 480.687 12.6423 480.542 12.6749C480.428 12.7029 480.247 12.7787 480.198 12.8187C480.17 12.8409 480.143 12.8716 480.143 12.8716C480.143 12.8716 480.211 12.9089 480.275 12.9361C480.391 12.9866 480.878 13.0169 481.131 13.063C481.356 13.1055 481.591 13.2239 481.684 13.3892C481.773 13.5463 481.784 13.6702 481.678 13.8013C481.43 14.1024 480.498 14.0516 480.087 13.9866C479.661 13.9187 479.129 13.7882 479.032 13.4169C478.919 12.9796 479.127 12.551 479.351 12.1547C479.802 11.3618 480.448 10.9494 481.395 10.6912C482.739 10.3216 484.436 10.0631 485.705 10.0146C488.578 9.90617 491.297 10.4082 494.08 11.2528C495.673 11.7342 497.759 12.542 499.286 13.2767C500.382 13.8046 502.108 14.7754 503.077 15.4099C503.383 15.6116 505.173 16.9258 505.451 17.1569C506.031 17.6307 506.79 18.3118 507.339 18.8565C508.402 19.909 509.723 21.5222 510.365 22.8027C510.52 23.1093 510.64 23.411 510.839 23.7664C510.908 23.8881 511.201 24.6163 511.25 24.8267C511.298 25.0348 511.369 25.3408 511.379 25.3529C511.393 25.4647 511.529 26.0903 511.518 26.3315ZM547.634 24.6887C546.288 24.9987 542.751 25.1708 542.751 25.1708L542.305 26.5673C542.305 26.5673 544.072 26.4165 545.359 26.5508C545.359 26.5508 545.775 26.5024 545.824 27.0235C545.841 27.5096 545.783 28.0311 545.783 28.0311C545.783 28.0311 545.756 28.3467 545.309 28.4269C544.824 28.5077 541.498 28.6362 541.498 28.6362L540.96 30.4565C540.96 30.4565 540.76 30.8774 541.208 30.7573C541.625 30.6458 545.109 29.9923 545.563 30.0863C546.05 30.207 546.588 30.8551 546.432 31.4456C546.247 32.1776 542.769 34.3943 540.651 34.2396C540.651 34.2396 539.538 34.3113 538.597 32.8102C537.721 31.3798 538.929 28.6713 538.929 28.6713C538.929 28.6713 538.376 27.4069 538.777 26.9784C538.777 26.9784 539.016 26.7618 539.712 26.7128L540.564 24.9504C540.564 24.9504 539.593 25.0172 539.016 24.3033C538.478 23.6261 538.432 23.3148 538.845 23.1278C539.286 22.9101 543.33 22.1726 546.112 22.2661C546.112 22.2661 547.079 22.1712 547.918 23.8475C547.918 23.8476 548.324 24.5255 547.634 24.6887ZM537.168 31.4653C536.812 32.3035 535.87 33.1981 534.699 32.642C533.544 32.0848 531.704 28.3213 531.704 28.3213C531.704 28.3213 531.006 26.9179 530.871 26.954C530.871 26.954 530.721 26.68 530.628 28.2136C530.532 29.7407 530.646 32.7183 530.037 33.187C529.46 33.657 528.76 33.4699 528.398 32.9208C528.068 32.3799 527.931 31.0946 528.111 28.8372C528.322 26.5754 528.848 24.169 529.52 23.4196C530.19 22.6753 530.729 23.2157 530.939 23.4117C530.939 23.4117 531.836 24.2244 533.316 26.611L533.577 27.0524C533.577 27.0524 534.921 29.3071 535.062 29.3019C535.062 29.3019 535.172 29.4055 535.27 29.3311C535.411 29.2908 535.354 28.5678 535.354 28.5678C535.354 28.5678 535.075 26.1106 533.848 21.9515C533.848 21.9515 533.663 21.4328 533.788 20.9469C533.913 20.4558 534.405 20.6863 534.405 20.6863C534.405 20.6863 536.307 21.6417 537.229 24.7351C538.146 27.8295 537.53 30.6208 537.168 31.4653ZM557.63 29.6126C556.764 31.1217 554.321 34.2815 551.074 33.5354C550.002 36.134 549.101 38.7627 548.586 42.6961C548.586 42.6961 548.473 43.4605 547.837 43.195C547.207 42.9746 546.17 41.928 545.96 40.48C545.734 38.5779 546.581 35.3626 548.313 31.6757C547.808 30.8551 547.464 29.6827 547.758 28.0133C547.758 28.0133 548.193 24.9133 551.309 22.1192C551.309 22.1192 551.682 21.7969 551.899 21.8961C552.137 21.9961 552.027 23.0048 551.837 23.4953C551.641 23.983 550.254 26.3826 550.254 26.3826C550.254 26.3826 549.389 28.0037 549.632 29.2823C551.266 26.7719 554.98 21.7095 557.282 23.3059C558.056 23.8589 558.412 25.0616 558.412 26.3576C558.413 27.4959 558.138 28.7058 557.63 29.6126ZM556.958 25.6367C556.958 25.6367 556.83 24.6386 555.853 25.7382C555.014 26.6661 553.499 28.4046 552.279 30.766C553.559 30.6224 554.793 29.9287 555.166 29.5754C555.773 29.0375 557.186 27.578 556.958 25.6367ZM575.517 25.4095H569.566C569.447 23.3882 569.203 21.4193 568.819 19.3915C568.78 19.1816 568.597 19.0294 568.384 19.0294H567.013C566.893 19.0294 566.78 19.083 566.703 19.1766C566.625 19.2717 566.595 19.3927 566.618 19.5111C567.007 21.4734 567.254 23.4047 567.376 25.4114H561.651C561.384 25.4114 561.168 25.6273 561.168 25.8928V27.1294C561.168 27.3955 561.384 27.6129 561.651 27.6129H567.458C567.462 27.9181 567.465 28.1914 567.465 28.4478C567.465 30.2299 567.388 31.698 567.208 33.3546C567.194 33.4827 567.236 33.6102 567.323 33.7041C567.407 33.7988 567.528 33.8528 567.654 33.8528H568.926C569.175 33.8528 569.381 33.6661 569.405 33.419C569.579 31.7511 569.654 30.2648 569.654 28.4477C569.654 28.1922 569.651 27.918 569.647 27.6128H575.517C575.783 27.6128 576 27.3954 576 27.1293V25.8927C576 25.6261 575.783 25.4095 575.517 25.4095Z" fill="white"/>
<path fill-rule="evenodd" clip-rule="evenodd" d="M611.85 28.2286H610.408V36.025H604V16H610.408V23.2891H611.983L615.508 16H622.022L617.483 25.3717L622.717 36.025H615.668L611.85 28.2286ZM633.717 28.7092H633.343L629.285 32.2603V36.025H623.144V20.005H629.285V26.0392H629.819L633.717 22.6216V20.005H639.858V36.025H633.717V28.7092ZM652.3 30.3646H648.135V36.025H641.994V20.005H648.135V25.4518H652.3V20.005H658.441V36.025H652.3V30.3646ZM668.587 19.7113C669.691 19.7113 670.714 19.8804 671.658 20.2186C672.601 20.5568 673.416 21.073 674.101 21.7672C674.786 22.4614 675.325 23.3291 675.716 24.3705C676.108 25.4118 676.304 26.6266 676.304 28.015C676.304 29.4212 676.108 30.6449 675.716 31.6863C675.325 32.7276 674.786 33.5908 674.101 34.2761C673.416 34.9615 672.606 35.4732 671.671 35.8114C670.737 36.1496 669.727 36.3187 668.641 36.3187H667.813C666.674 36.3187 665.624 36.1496 664.662 35.8114C663.701 35.4732 662.873 34.9615 662.179 34.2761C661.485 33.5908 660.942 32.7276 660.551 31.6863C660.159 30.6449 659.963 29.4212 659.963 28.015C659.963 26.6266 660.159 25.4118 660.551 24.3705C660.942 23.3291 661.481 22.4614 662.166 21.7672C662.851 21.073 663.666 20.5568 664.609 20.2186C665.552 19.8804 666.585 19.7113 667.706 19.7113H668.587ZM668.24 31.1923C668.917 31.1923 669.464 30.9209 669.882 30.378C670.301 29.835 670.51 29.0474 670.51 28.015C670.51 26.9826 670.301 26.195 669.882 25.6521C669.464 25.1091 668.917 24.8377 668.24 24.8377H668.027C667.315 24.8377 666.754 25.1091 666.345 25.6521C665.935 26.195 665.73 26.9826 665.73 28.015C665.73 29.0474 665.935 29.835 666.345 30.378C666.754 30.9209 667.315 31.1923 668.027 31.1923H668.24ZM677.559 16H694.646V36.025H688.239V21.2065H683.966V36.025H677.559V16ZM704.525 19.7113C705.629 19.7113 706.653 19.8804 707.596 20.2186C708.539 20.5568 709.354 21.073 710.039 21.7672C710.724 22.4614 711.263 23.3291 711.654 24.3705C712.046 25.4118 712.242 26.6266 712.242 28.015C712.242 29.4212 712.046 30.6449 711.654 31.6863C711.263 32.7276 710.724 33.5908 710.039 34.2761C709.354 34.9615 708.544 35.4732 707.609 35.8114C706.675 36.1496 705.665 36.3187 704.579 36.3187H703.751C702.612 36.3187 701.562 36.1496 700.601 35.8114C699.639 35.4732 698.812 34.9615 698.118 34.2761C697.423 33.5908 696.88 32.7276 696.489 31.6863C696.097 30.6449 695.901 29.4212 695.901 28.015C695.901 26.6266 696.097 25.4118 696.489 24.3705C696.88 23.3291 697.419 22.4614 698.104 21.7672C698.79 21.073 699.604 20.5568 700.547 20.2186C701.491 19.8804 702.523 19.7113 703.644 19.7113H704.525ZM704.178 31.1923C704.855 31.1923 705.402 30.9209 705.82 30.378C706.239 29.835 706.448 29.0474 706.448 28.015C706.448 26.9826 706.239 26.195 705.82 25.6521C705.402 25.1091 704.855 24.8377 704.178 24.8377H703.965C703.253 24.8377 702.692 25.1091 702.283 25.6521C701.873 26.195 701.669 26.9826 701.669 28.015C701.669 29.0474 701.873 29.835 702.283 30.378C702.692 30.9209 703.253 31.1923 703.965 31.1923H704.178ZM724.337 28.7092H723.963L719.905 32.2603V36.025H713.764V20.005H719.905V26.0392H720.439L724.337 22.6216V20.005H730.478V36.025H724.337V28.7092ZM748.447 28.8427C748.394 30.1599 748.162 31.2902 747.753 32.2336C747.343 33.177 746.801 33.9557 746.124 34.5699C745.448 35.184 744.656 35.6334 743.748 35.9182C742.84 36.203 741.852 36.3454 740.784 36.3454H739.956C738.817 36.3454 737.763 36.1719 736.792 35.8248C735.822 35.4776 734.986 34.957 734.283 34.2628C733.58 33.5686 733.032 32.7009 732.641 31.6596C732.249 30.6182 732.062 29.4034 732.08 28.015C732.098 26.6266 732.302 25.4118 732.694 24.3705C733.086 23.3291 733.624 22.4614 734.309 21.7672C734.995 21.073 735.809 20.5524 736.752 20.2053C737.696 19.8581 738.728 19.6846 739.85 19.6846H740.731C741.781 19.6846 742.764 19.8314 743.681 20.1252C744.598 20.4189 745.399 20.8683 746.084 21.4735C746.769 22.0787 747.321 22.8307 747.739 23.7297C748.158 24.6286 748.394 25.6743 748.447 26.8669H742.6C742.511 26.1905 742.266 25.6832 741.865 25.345C741.465 25.0068 740.971 24.8377 740.384 24.8377H740.143C739.449 24.8377 738.897 25.1091 738.488 25.6521C738.079 26.195 737.874 26.9826 737.874 28.015C737.874 29.0474 738.079 29.835 738.488 30.378C738.897 30.9209 739.449 31.1923 740.143 31.1923H740.384C741.007 31.1923 741.523 30.9921 741.932 30.5916C742.342 30.191 742.573 29.6081 742.626 28.8427H748.447ZM757.178 29.9908H756.057V36.025H749.915V20.005H756.057V25.612H757.205L760.302 20.005H766.683L762.571 27.4543L767.484 36.025H760.649L757.178 29.9908Z" fill="white"/>
<path fill-rule="evenodd" clip-rule="evenodd" d="M790.855 12.1351C800.049 11.132 807 15.8133 807 22.891C807 30.4981 800.603 37.7152 788.695 40L792.711 19.4079L796.975 20.1602L794.317 33.8977C798.775 32.0864 802.181 28.1574 802.237 23.5876C802.32 17.9867 796.671 15.7854 789.969 16.705L790.855 12.1351ZM784.12 23.9498H779.656L781.191 16.0362L776.954 15.2281L775.253 23.9498H771V27.9624H774.47L773.188 34.5385L777.452 35.3187L778.879 27.9624H783.338L781.246 38.6903L785.539 39.4427L789.554 18.8505L785.261 18.0982L784.12 23.9498Z" fill="white"/>
<g clip-path="url(#clip3_15:256)">
<path d="M26.0742 86.313H29.7006L32.5966 97.8458C32.5966 97.8458 32.9107 99.1763 33.0409 99.8301C33.1712 99.1789 33.4853 97.8203 33.4853 97.8203L36.4604 86.313H40.0101L42.9853 97.8203C42.9853 97.8203 43.2994 99.1763 43.4296 99.8301C43.5599 99.1789 43.874 97.8458 43.874 97.8458L46.77 86.313H50.3963L45.3603 104.577H41.6548L38.2378 91.3235L34.8209 104.577H31.1154L26.0742 86.313Z" fill="white"/>
<path d="M55.7769 91.6353H52.4902V104.578H55.7769V91.6353Z" fill="white"/>
<path d="M68.0069 104.578V97.1155C68.0069 95.4198 67.1973 94.3498 65.3714 94.3498C63.6502 94.3498 62.3707 95.8362 62.3707 98.0017V104.578H59.084V91.6352H62.3707V93.7216C63.336 92.2353 64.876 91.27 66.753 91.27C69.5187 91.27 71.2936 93.0704 71.2936 95.7569V104.575H68.0069V104.578Z" fill="white"/>
<path d="M74.2461 86.313H77.5327V95.55L81.4732 91.6351H85.5439L80.822 96.2523L86.1721 104.575H82.3875L78.5262 98.5226L77.5353 99.4879V104.575H74.2486V86.313H74.2461Z" fill="white"/>
<path d="M52.0527 84.9774L53.3372 86.2619L52.0527 87.5465L53.5722 89.0634L56.3737 86.2619L53.5722 83.4604L52.0527 84.9774Z" fill="white"/>
<path d="M7.33696 82L0 89.337L6.20819 95.5451L0 101.756L7.33696 109.093L20.8847 95.5451L7.33696 82Z" fill="white"/>
</g>
<g clip-path="url(#clip4_15:256)">
<path d="M304.4 109.066C302.716 109.36 301.001 109.447 299.228 109.682L293.818 93.9786V110.356C292.133 110.531 290.596 110.766 289 111V81H293.493L299.641 98.0217V81H304.4V109.066ZM313.712 91.9863C315.544 91.9863 318.352 91.8984 320.037 91.8984V96.5858C317.938 96.5858 315.485 96.5858 313.712 96.6737V103.647C316.49 103.471 319.269 103.236 322.077 103.148V107.66L308.982 108.685V81H322.077V85.6875H313.712V91.9863ZM339.664 85.6876H334.758V107.25C333.161 107.25 331.565 107.25 330.028 107.309V85.6876H325.122V81H339.665L339.664 85.6876ZM347.35 91.6642H353.823V96.3516H347.35V106.986H342.709V81H355.922V85.6875H347.35V91.6642ZM363.607 102.885C366.297 102.943 369.017 103.149 371.648 103.295V107.924C367.421 107.66 363.194 107.397 358.878 107.309V81H363.607V102.885ZM375.638 108.246C377.146 108.334 378.742 108.422 380.279 108.598V81H375.638V108.246ZM401 81L394.999 95.2676L401 111C399.226 110.766 397.453 110.443 395.679 110.15L392.28 101.479L388.822 109.447C387.107 109.154 385.452 109.066 383.738 108.832L389.827 95.0917L384.329 81H389.413L392.516 88.8809L395.827 81H401V81Z" fill="white"/>
</g>
</g>
<path d="M458.398 86.9375V104H454.871V89.7852H450.324L450.043 95.8086C449.926 97.8398 449.668 99.4414 449.27 100.613C448.871 101.777 448.289 102.633 447.523 103.18C446.758 103.719 445.711 103.992 444.383 104H443.469V101.176L444.055 101.117C444.938 101 445.566 100.492 445.941 99.5938C446.324 98.6875 446.566 97.0781 446.668 94.7656L446.961 86.9375H458.398ZM464.914 96.1836H466.742C466.992 94.6055 467.637 93.3633 468.676 92.457C469.723 91.543 471.039 91.0859 472.625 91.0859C474.336 91.0859 475.73 91.6094 476.809 92.6562C477.895 93.7031 478.5 95.125 478.625 96.9219L478.648 97.7891C478.648 99.7344 478.105 101.297 477.02 102.477C475.934 103.648 474.477 104.234 472.648 104.234C471 104.234 469.648 103.758 468.594 102.805C467.547 101.852 466.918 100.559 466.707 98.9258H464.914V104H461.516V91.3203H464.914V96.1836ZM470.023 97.7891C470.023 98.9922 470.25 99.9141 470.703 100.555C471.156 101.188 471.805 101.504 472.648 101.504C473.484 101.504 474.129 101.188 474.582 100.555C475.035 99.9219 475.262 98.918 475.262 97.543C475.262 96.3633 475.031 95.4492 474.57 94.8008C474.109 94.1523 473.461 93.8281 472.625 93.8281C471.797 93.8281 471.156 94.1523 470.703 94.8008C470.25 95.4414 470.023 96.4375 470.023 97.7891ZM487.016 92.0234C488.641 92.0234 489.938 92.5625 490.906 93.6406C491.875 94.7188 492.359 96.1836 492.359 98.0352V98.1992C492.359 100.027 491.82 101.492 490.742 102.594C489.664 103.695 488.215 104.246 486.395 104.246C484.566 104.246 483.109 103.652 482.023 102.465C480.945 101.27 480.406 99.6484 480.406 97.6016V97.0391C480.422 94.1875 480.902 91.957 481.848 90.3477C482.801 88.7305 484.23 87.7109 486.137 87.2891C487.137 87.0703 487.781 86.8555 488.07 86.6445C488.359 86.4258 488.504 86.125 488.504 85.7422H491.246C491.246 86.9688 490.914 87.8906 490.25 88.5078C489.594 89.125 488.422 89.6016 486.734 89.9375C485.734 90.1406 484.945 90.5352 484.367 91.1211C483.789 91.707 483.398 92.5312 483.195 93.5938C484.273 92.5469 485.547 92.0234 487.016 92.0234ZM486.371 94.7656C485.566 94.7656 484.934 95.0352 484.473 95.5742C484.02 96.1133 483.793 96.9883 483.793 98.1992C483.793 99.2773 484.016 100.102 484.461 100.672C484.906 101.234 485.551 101.516 486.395 101.516C487.215 101.516 487.848 101.238 488.293 100.684C488.738 100.129 488.965 99.3125 488.973 98.2344V97.9531C488.973 96.9141 488.742 96.125 488.281 95.5859C487.828 95.0391 487.191 94.7656 486.371 94.7656ZM493.859 97.543C493.859 96.2852 494.102 95.1641 494.586 94.1797C495.07 93.1953 495.766 92.4336 496.672 91.8945C497.586 91.3555 498.645 91.0859 499.848 91.0859C501.559 91.0859 502.953 91.6094 504.031 92.6562C505.117 93.7031 505.723 95.125 505.848 96.9219L505.871 97.7891C505.871 99.7344 505.328 101.297 504.242 102.477C503.156 103.648 501.699 104.234 499.871 104.234C498.043 104.234 496.582 103.648 495.488 102.477C494.402 101.305 493.859 99.7109 493.859 97.6953V97.543ZM497.246 97.7891C497.246 98.9922 497.473 99.9141 497.926 100.555C498.379 101.188 499.027 101.504 499.871 101.504C500.691 101.504 501.332 101.191 501.793 100.566C502.254 99.9336 502.484 98.9258 502.484 97.543C502.484 96.3633 502.254 95.4492 501.793 94.8008C501.332 94.1523 500.684 93.8281 499.848 93.8281C499.02 93.8281 498.379 94.1523 497.926 94.8008C497.473 95.4414 497.246 96.4375 497.246 97.7891ZM515.598 91.3203H518.984V104H515.598V96.1719L511.355 104H507.957V91.3203H511.355V99.1367L515.598 91.3203ZM517.59 86.1758C517.59 87.2148 517.215 88.0547 516.465 88.6953C515.723 89.3359 514.746 89.6562 513.535 89.6562C512.324 89.6562 511.344 89.3398 510.594 88.707C509.852 88.0742 509.48 87.2305 509.48 86.1758H511.883C511.883 86.668 512.027 87.0508 512.316 87.3242C512.613 87.5898 513.02 87.7227 513.535 87.7227C514.043 87.7227 514.441 87.5898 514.73 87.3242C515.02 87.0508 515.164 86.668 515.164 86.1758H517.59ZM527.727 101.27C528.492 100.457 529.012 99.6523 529.285 98.8555C529.559 98.0586 529.711 96.9297 529.742 95.4688L529.836 91.3203H539.164V101.27H540.992V107.809H537.605V104H530.094V107.809H526.637V101.27H527.727ZM531.723 101.27H535.789V94.1211H533.152L533.129 95.6445C533.059 97.9727 532.59 99.8477 531.723 101.27ZM553.918 97.7773C553.918 99.7305 553.473 101.297 552.582 102.477C551.699 103.648 550.504 104.234 548.996 104.234C547.715 104.234 546.68 103.789 545.891 102.898V108.875H542.504V91.3203H545.645L545.762 92.5625C546.582 91.5781 547.652 91.0859 548.973 91.0859C550.535 91.0859 551.75 91.6641 552.617 92.8203C553.484 93.9766 553.918 95.5703 553.918 97.6016V97.7773ZM550.531 97.5312C550.531 96.3516 550.32 95.4414 549.898 94.8008C549.484 94.1602 548.879 93.8398 548.082 93.8398C547.02 93.8398 546.289 94.2461 545.891 95.0586V100.25C546.305 101.086 547.043 101.504 548.105 101.504C549.723 101.504 550.531 100.18 550.531 97.5312ZM560.621 99.207L562.965 91.3203H566.598L561.5 105.969L561.219 106.637C560.461 108.293 559.211 109.121 557.469 109.121C556.977 109.121 556.477 109.047 555.969 108.898V106.332L556.484 106.344C557.125 106.344 557.602 106.246 557.914 106.051C558.234 105.855 558.484 105.531 558.664 105.078L559.062 104.035L554.621 91.3203H558.266L560.621 99.207ZM576.57 94.0625H571.32V104H567.934V91.3203H576.57V94.0625ZM577.227 97.543C577.227 96.2852 577.469 95.1641 577.953 94.1797C578.438 93.1953 579.133 92.4336 580.039 91.8945C580.953 91.3555 582.012 91.0859 583.215 91.0859C584.926 91.0859 586.32 91.6094 587.398 92.6562C588.484 93.7031 589.09 95.125 589.215 96.9219L589.238 97.7891C589.238 99.7344 588.695 101.297 587.609 102.477C586.523 103.648 585.066 104.234 583.238 104.234C581.41 104.234 579.949 103.648 578.855 102.477C577.77 101.305 577.227 99.7109 577.227 97.6953V97.543ZM580.613 97.7891C580.613 98.9922 580.84 99.9141 581.293 100.555C581.746 101.188 582.395 101.504 583.238 101.504C584.059 101.504 584.699 101.191 585.16 100.566C585.621 99.9336 585.852 98.9258 585.852 97.543C585.852 96.3633 585.621 95.4492 585.16 94.8008C584.699 94.1523 584.051 93.8281 583.215 93.8281C582.387 93.8281 581.746 94.1523 581.293 94.8008C580.84 95.4414 580.613 96.4375 580.613 97.7891ZM598.965 91.3203H602.352V104H598.965V96.1719L594.723 104H591.324V91.3203H594.723V99.1367L598.965 91.3203ZM600.957 86.1758C600.957 87.2148 600.582 88.0547 599.832 88.6953C599.09 89.3359 598.113 89.6562 596.902 89.6562C595.691 89.6562 594.711 89.3398 593.961 88.707C593.219 88.0742 592.848 87.2305 592.848 86.1758H595.25C595.25 86.668 595.395 87.0508 595.684 87.3242C595.98 87.5898 596.387 87.7227 596.902 87.7227C597.41 87.7227 597.809 87.5898 598.098 87.3242C598.387 87.0508 598.531 86.668 598.531 86.1758H600.957Z" fill="white"/>
<defs>
<filter id="filter0_b_15:256" x="-4" y="-4" width="815" height="119" filterUnits="userSpaceOnUse" color-interpolation-filters="sRGB">
<feFlood flood-opacity="0" result="BackgroundImageFix"/>
<feGaussianBlur in="BackgroundImage" stdDeviation="2"/>
<feComposite in2="SourceAlpha" operator="in" result="effect1_backgroundBlur_15:256"/>
<feBlend mode="normal" in="SourceGraphic" in2="effect1_backgroundBlur_15:256" result="shape"/>
</filter>
<clipPath id="clip0_15:256">
<rect width="175" height="29.34" fill="white" transform="translate(276 12)"/>
</clipPath>
<clipPath id="clip1_15:256">
<rect width="111.877" height="33.6752" fill="white" transform="translate(136 9)"/>
</clipPath>
<clipPath id="clip2_15:256">
<rect width="108.324" height="24.2034" fill="white" transform="translate(0 14)"/>
</clipPath>
<clipPath id="clip3_15:256">
<rect width="86.1716" height="27.0929" fill="white" transform="translate(0 82)"/>
</clipPath>
<clipPath id="clip4_15:256">
<rect width="112" height="30" fill="white" transform="translate(289 81)"/>
</clipPath>
</defs>
</svg>
