<svg viewBox="0 0 175 96" fill="none" xmlns="http://www.w3.org/2000/svg">
    <g clip-path="url(#clip0_2:908)">
        <path d="M79.4482 64.3997C79.5449 64.413 79.5659 64.4168 79.6603 64.4291C81.2363 64.6431 82.785 64.927 83.9705 65.4565C85.0692 65.9413 85.7132 66.5549 86.3012 67.6484C87.1952 69.3068 87.2535 71.63 86.4455 73.3884C85.8419 74.6967 84.517 75.7938 83.3074 76.3753C82.0513 76.984 80.8137 77.2738 79.3942 77.4357C76.9117 77.7089 74.2305 77.1949 71.9967 76.1151C70.675 75.4701 69.0612 74.3594 68.2471 72.9284C67.6484 71.8801 67.6675 70.5161 68.3959 69.5198C69.5568 67.9318 72.0434 67.5822 73.9162 67.6484C75.3441 67.7037 77.915 68.1448 79.2707 68.6268C79.6464 68.7625 81.0322 69.302 81.2741 69.5495C81.4444 69.7216 81.5548 69.9717 81.4783 70.2029C81.1686 71.1498 78.8663 71.6489 78.2015 71.7491C76.4217 72.0216 75.4982 71.3484 73.4749 70.5501C72.9726 70.3535 72.3033 70.1354 71.7919 70.0882C70.8733 70.0007 69.7638 70.2578 69.5885 71.2599C69.5013 71.7764 70.1074 72.2594 70.5695 72.4625C71.6549 72.9284 72.5372 73.096 73.6054 73.1103C76.761 73.1622 80.3074 72.643 82.8885 70.8154C83.2418 70.5634 83.5888 70.1945 83.5925 69.7295C83.6037 68.7905 81.9564 68.2163 81.9564 68.2163C80.2178 67.4919 77.0053 67.1393 75.3503 67.0031C73.6136 66.8529 70.881 66.6281 70.225 66.5316C69.5495 66.4352 68.8157 66.299 68.2307 66.037C67.643 65.7717 67.0681 65.1779 66.8975 64.521C66.5949 63.3369 66.981 61.8839 67.639 60.9379C69.3636 58.46 73.4035 57.5189 76.4215 57.1452C79.3426 56.7819 84.065 56.7856 86.9341 58.3093C87.3771 58.5466 87.6033 58.7673 87.5107 59.2406C87.3239 60.129 86.6557 60.7016 85.8458 60.9526C84.9962 61.2228 83.2387 61.3281 82.4667 61.3767C79.0077 61.5705 74.8276 61.4688 71.5329 62.3667C71.2748 62.4404 70.8289 62.5605 70.684 62.7223C70.1683 63.2818 71.6412 63.4416 71.9567 63.5056C72.0506 63.528 72.0687 63.5312 72.1666 63.5418L79.4482 64.3997ZM58.8701 48.9853C58.8701 48.9853 59.4327 48.142 59.9042 47.5022C60.7625 46.3371 62.316 44.7213 63.4859 43.7209C63.8438 43.4154 64.2657 43.0693 64.2657 43.0693C64.2657 43.0693 63.6058 43.1375 63.2318 43.2139C62.3442 43.3865 61.0427 44.251 60.3924 44.8096C59.3193 45.7276 58.1393 47.2199 58.6732 48.546C58.7507 48.7333 58.8701 48.9853 58.8701 48.9853ZM64.8355 50.5806C66.5307 50.4638 68.1187 49.9761 69.5971 49.1565C71.0469 48.3457 73.1795 46.7647 72.9583 44.9061C72.8911 44.3045 72.497 43.8503 71.9995 43.6383C71.3528 43.3583 71.0156 43.4035 70.1896 43.6488C69.5895 43.8243 69.3192 43.9308 68.7525 44.2548C67.0895 45.2204 64.7315 47.2869 63.4514 48.9361C63.156 49.3251 62.8568 49.7601 62.6226 50.0582C62.4749 50.2421 62.3601 50.4108 62.3745 50.4558C62.4256 50.6427 64.1734 50.6256 64.8355 50.5806ZM60.5193 53.749C60.3444 53.9338 60.1595 54.3795 59.9677 54.7021C59.8651 54.8748 59.6753 55.097 59.5496 55.1862C59.1084 55.5105 58.7346 55.5255 58.3087 55.1509C57.7114 54.6229 57.3659 53.8063 57.3414 53.012C57.3287 52.6654 57.3882 52.2818 57.3225 51.9896C57.2139 51.4962 56.7198 50.988 56.4535 50.5163C56.1408 49.9607 55.8877 48.9918 55.8562 48.3662C55.749 46.4156 56.7778 44.6188 58.1142 43.2016C59.4602 41.7686 61.221 40.5776 63.1361 39.7668C64.9463 39.0048 67.5989 38.4854 69.5867 39.1734C70.2339 39.395 71.1355 39.9453 71.5885 40.522C71.6848 40.6416 71.7632 40.771 71.8619 40.8343C71.9503 40.8906 72.1815 40.9128 72.3654 40.9466C72.9994 41.0564 73.9122 41.5362 74.2851 41.8557C75.0343 42.5016 75.4447 43.1189 75.6346 44.0149C76.0154 45.8177 74.9765 47.7955 73.7934 48.9993C71.7674 51.071 69.7666 52.5277 67.1749 53.5417C66.0365 53.9861 64.2636 54.4013 62.9721 54.2852C62.571 54.252 62.159 54.1463 61.7684 54.1204C61.5691 54.1033 60.8404 53.9155 60.7625 53.8625C60.6659 53.7883 60.5411 53.7238 60.5193 53.749ZM62.834 57.7459C62.9129 57.7592 63.0345 57.7946 63.1392 57.8348C64.0478 58.1802 64.4216 59.0205 64.6454 59.9436C65.1641 62.0871 65.3855 66.8291 65.4718 68.6852C65.5351 70.0784 65.57 71.449 65.6284 72.8261C65.6779 73.9923 65.771 75.5427 65.5278 76.6352C65.4394 77.0282 65.1764 77.4852 64.7998 77.7192C64.3684 77.9952 63.3865 78.0162 62.8468 77.9049C61.5164 77.63 61.0842 76.7751 60.8943 75.4603C60.443 72.3229 60.6603 66.1655 60.9267 63.5674C61.0152 62.7092 61.3386 59.9595 61.787 58.8067C61.9401 58.4179 62.2661 57.6349 62.834 57.7459ZM22.3628 62.9659C22.3628 62.9659 20.3828 63.106 19.0201 63.2571C17.2864 63.4437 14.0288 64.0058 12.1484 64.6769C11.5844 64.8787 10.4386 65.3579 10.3391 65.9375C10.2344 66.5382 10.6075 67.008 11.0224 67.494C11.2624 67.7763 12.6204 69.0819 13.0012 69.3991C14.5973 70.7309 17.834 72.7848 20.2178 73.7822C21.0368 74.1208 22.3917 74.6056 22.3917 74.6056C22.3917 74.6056 22.291 70.7503 22.3091 66.9527C22.3196 64.9494 22.3628 62.9659 22.3628 62.9659ZM58.6672 64.5002C58.7806 65.5359 58.5143 67.4942 58.4681 67.7525C58.3837 68.3478 57.9345 69.7211 57.86 69.8886C57.4974 70.7232 57.1398 71.407 56.761 72.0891C56.1117 73.2569 54.5679 75.1081 53.6514 75.9003C50.2433 78.8443 44.9674 80.5204 40.4412 81.0726C37.3699 81.4433 33.8409 81.3889 30.5866 80.7871C29.4666 80.5836 27.7999 80.1997 27.7999 80.1997C27.7999 80.1997 27.8053 80.8657 27.7519 81.334C27.726 81.5477 27.565 82.1102 27.4747 82.2924C27.2381 82.7809 26.8496 83.0329 26.2847 83.1413C25.6029 83.2678 24.8798 83.3099 24.2498 83.0408C23.2154 82.6058 22.844 81.6387 22.6638 80.5232C22.518 79.6311 22.3654 78.0803 22.3654 78.0803C22.3654 78.0803 21.5916 77.7141 20.9463 77.3923C18.9645 76.4164 17.0822 75.234 15.4354 74.018C14.9792 73.6776 13.0192 72.0372 12.5866 71.6298C11.3735 70.4789 10.2822 69.3339 9.45199 67.8646C8.80659 66.7168 8.62074 65.6981 9.11162 64.4819C9.78852 62.7866 12.2205 61.5103 13.8849 60.7829C15.1066 60.2439 18.9053 59.0043 20.4833 58.7745C21.2286 58.668 22.3847 58.4611 22.4557 58.4149C22.4848 58.3927 22.5049 58.3738 22.5259 58.3498C22.5623 58.2986 22.6237 56.6205 22.6118 56.0066C22.5964 55.4031 23.0588 51.439 23.2073 50.6008C23.2849 50.1474 23.6284 48.4024 23.9791 47.9443C24.2085 47.6348 24.6142 47.6598 24.9449 47.863C26.7548 48.9877 27.3046 52.8883 27.4392 54.873C27.5197 56.0822 27.5598 57.9011 27.5598 57.9011C27.5598 57.9011 29.636 57.8397 30.9131 57.8759C32.1542 57.9047 33.5222 58.1004 34.8104 58.3056C36.4596 58.5698 39.6741 59.2706 41.5178 60.2047C43.0359 60.9739 44.4569 62.2698 44.9173 63.6413C45.345 64.8986 45.281 65.7687 44.6294 66.9034C43.8969 68.1847 42.5112 69.1369 41.1063 69.2165C40.6883 69.2407 39.1147 69.0317 38.6304 68.657C38.4406 68.5077 38.4504 68.2382 38.5874 68.0554C38.6394 67.9912 39.3749 67.6004 39.8091 67.3723C40.0268 67.2541 40.2068 67.1266 40.3768 66.9718C40.7374 66.6544 41.0621 66.3049 41.0258 65.8953C40.976 65.3637 40.413 65.0357 39.8764 64.8248C37.3589 63.8253 32.3324 62.9956 29.9034 62.8521C28.9526 62.7963 27.6002 62.7485 27.6002 62.7485L27.8861 76.1532C27.8861 76.1532 29.0042 76.3661 29.8853 76.5088C30.3909 76.5854 32.5331 76.7781 33.1024 76.7921C37.4368 76.9065 42.2745 76.5186 46.2522 74.6427C47.9985 73.8214 49.6007 72.7988 50.8136 71.4146C52.4122 69.5829 53.2494 67.0762 53.0279 64.4579C52.785 61.5984 50.7712 58.204 49.1632 56.1371C44.9143 50.6765 37.6314 46.1846 31.2239 43.5511C24.6824 40.8642 18.2172 39.3185 11.2748 39.0597C9.48507 38.9934 5.58274 39.0837 3.61014 39.629C3.32839 39.7084 3.04437 39.8032 2.78274 39.8619C2.57607 39.9125 2.25039 40.0492 2.16097 40.1215C2.11144 40.1615 2.06244 40.217 2.06244 40.217C2.06244 40.217 2.18407 40.2841 2.30027 40.3333C2.50922 40.4244 3.38877 40.4789 3.84394 40.5622C4.25117 40.6388 4.67519 40.8525 4.84302 41.1507C5.00244 41.4342 5.02239 41.6577 4.83182 41.8942C4.38487 42.4374 2.70259 42.3457 1.96182 42.2286C1.19199 42.106 0.233517 41.8705 0.0574666 41.2007C-0.146758 40.4118 0.228267 39.6384 0.633392 38.9235C1.44732 37.493 2.61317 36.749 4.32047 36.2831C6.74544 35.6163 9.80742 35.15 12.0973 35.0626C17.2801 34.8669 22.1853 35.7726 27.207 37.2963C30.081 38.1648 33.8437 39.6221 36.5983 40.9476C38.575 41.9001 41.6893 43.6516 43.4387 44.7963C43.9905 45.1603 47.2194 47.5313 47.721 47.948C48.7673 48.8029 50.1358 50.0317 51.1269 51.0144C53.0442 52.9132 55.4289 55.8237 56.5874 58.1338C56.8661 58.687 57.0821 59.2313 57.4417 59.8724C57.5654 60.0921 58.0947 61.4059 58.1827 61.7854C58.2698 62.1609 58.3976 62.7128 58.4156 62.7347C58.4412 62.9364 58.6865 64.0651 58.6672 64.5002ZM123.824 61.5364C121.397 62.0957 115.014 62.4063 115.014 62.4063L114.209 64.9257C114.209 64.9257 117.399 64.6536 119.719 64.8958C119.719 64.8958 120.471 64.8086 120.56 65.7488C120.589 66.6257 120.485 67.5666 120.485 67.5666C120.485 67.5666 120.437 68.1359 119.63 68.2807C118.755 68.4264 112.755 68.6583 112.755 68.6583L111.783 71.9424C111.783 71.9424 111.422 72.7016 112.231 72.4849C112.983 72.2838 119.27 71.1048 120.089 71.2745C120.966 71.4922 121.937 72.6614 121.657 73.7268C121.322 75.0474 115.047 79.0466 111.226 78.7675C111.226 78.7675 109.218 78.8969 107.521 76.1887C105.941 73.608 108.12 68.7216 108.12 68.7216C108.12 68.7216 107.121 66.4405 107.845 65.6673C107.845 65.6673 108.276 65.2766 109.532 65.1883L111.07 62.0086C111.07 62.0086 109.318 62.1291 108.276 60.8412C107.305 59.6194 107.224 59.0578 107.968 58.7204C108.764 58.3276 116.059 56.9971 121.079 57.1658C121.079 57.1658 122.823 56.9946 124.337 60.0188C124.337 60.019 125.07 61.242 123.824 61.5364ZM104.943 73.7623C104.3 75.2746 102.6 76.8885 100.489 75.8853C98.4049 74.88 95.0853 68.09 95.0853 68.09C95.0853 68.09 93.8251 65.5581 93.5827 65.6234C93.5827 65.6234 93.3104 65.129 93.1435 67.8957C92.9699 70.6508 93.1769 76.0229 92.0772 76.8685C91.0354 77.7164 89.774 77.3789 89.1199 76.3883C88.5252 75.4124 88.2778 73.0935 88.6022 69.0208C88.9836 64.9403 89.9321 60.5988 91.1439 59.2469C92.3541 57.904 93.3257 58.8789 93.7044 59.2325C93.7044 59.2325 95.3231 60.6988 97.9926 65.0044L98.4637 65.8009C98.4637 65.8009 100.89 69.8687 101.143 69.8592C101.143 69.8592 101.341 70.0462 101.518 69.9119C101.773 69.8391 101.67 68.5348 101.67 68.5348C101.67 68.5348 101.167 64.1017 98.9535 56.5981C98.9535 56.5981 98.6189 55.6625 98.8452 54.7857C99.0699 53.8997 99.9585 54.3156 99.9585 54.3156C99.9585 54.3156 103.389 56.0392 105.053 61.6201C106.707 67.2028 105.596 72.2386 104.943 73.7623ZM141.858 70.4198C140.297 73.1423 135.889 78.8431 130.031 77.4971C128.097 82.1852 126.472 86.9277 125.542 94.0241C125.542 94.0241 125.338 95.4031 124.191 94.9241C123.055 94.5266 121.183 92.6383 120.804 90.0259C120.397 86.5944 121.925 80.7934 125.05 74.1418C124.138 72.6614 123.517 70.5462 124.049 67.5344C124.049 67.5344 124.834 61.9416 130.454 56.9007C130.454 56.9007 131.128 56.3192 131.519 56.4983C131.949 56.6786 131.75 58.4985 131.408 59.3834C131.053 60.2633 128.551 64.5924 128.551 64.5924C128.551 64.5924 126.99 67.5171 127.43 69.8239C130.377 65.2948 137.078 56.1616 141.231 59.0417C142.626 60.0393 143.27 62.2092 143.27 64.5473C143.27 66.601 142.775 68.7838 141.858 70.4198ZM140.646 63.2468C140.646 63.2468 140.415 61.4461 138.653 63.4299C137.138 65.104 134.406 68.2405 132.206 72.5006C134.514 72.2416 136.74 70.9901 137.413 70.3526C138.508 69.3821 141.057 66.7492 140.646 63.2468ZM174.128 62.8368H163.393C163.178 59.1902 162.738 55.638 162.046 51.9796C161.975 51.601 161.645 51.3264 161.261 51.3264H158.786C158.571 51.3264 158.367 51.4231 158.227 51.5919C158.087 51.7634 158.032 51.9817 158.073 52.1954C158.777 55.7356 159.222 59.2199 159.442 62.8403H149.113C148.632 62.8403 148.241 63.2298 148.241 63.7088V65.9398C148.241 66.4198 148.632 66.8121 149.113 66.8121H159.59C159.596 67.3627 159.602 67.8557 159.602 68.3183C159.602 71.5335 159.463 74.182 159.139 77.1709C159.113 77.4019 159.189 77.6319 159.345 77.8014C159.497 77.9723 159.716 78.0697 159.943 78.0697H162.239C162.687 78.0697 163.058 77.7328 163.103 77.287C163.417 74.2779 163.551 71.5964 163.551 68.3181C163.551 67.8573 163.546 67.3625 163.539 66.8119H174.129C174.609 66.8119 175 66.4197 175 65.9396V63.7087C175 63.2276 174.608 62.8368 174.128 62.8368Z" fill="white"/>
        <path d="M30.5752 32.942C30.4232 33.1679 30.3864 33.4451 30.4737 33.7055C30.5649 33.9654 30.7632 34.1631 31.0194 34.2528L32.9439 34.9C33.0602 34.9364 33.1759 34.9555 33.2893 34.9555C33.646 34.9555 33.9807 34.779 34.179 34.4828C40.4829 25.2277 49.0145 17.5218 58.853 12.1981C69.01 6.7013 80.5178 3.79374 92.1359 3.79374C106.169 3.79374 119.709 7.93061 131.292 15.7563C142.595 23.3896 151.373 34.0394 156.678 46.5548C156.836 46.9294 157.202 47.1709 157.608 47.1709H159.906C160.171 47.1709 160.42 47.0377 160.57 46.8164C160.72 46.5957 160.748 46.3154 160.649 46.0672C155.179 32.6105 145.929 21.1393 133.896 12.8979C121.579 4.4606 107.138 0 92.1359 0C67.3347 0 44.3206 12.3151 30.5752 32.942Z" fill="url(#paint0_linear_2:908)"/>
    </g>
    <defs>
        <linearGradient id="paint0_linear_2:908" x1="162.838" y1="30.6704" x2="33.1652" y2="13.127" gradientUnits="userSpaceOnUse">
            <stop stop-color="white"/>
        </linearGradient>
        <clipPath id="clip0_2:908">
            <rect width="175" height="95.025" fill="white"/>
        </clipPath>
    </defs>
</svg>
