<svg width="126" height="58" viewBox="0 0 126 58" fill="none" xmlns="http://www.w3.org/2000/svg">
<path d="M23.1152 33H17.8418V22.0312H7.55859V33H2.28516V7.40625H7.55859V17.7773H17.8418V7.40625H23.1152V33ZM41.0098 26.2852C41.0098 25.2891 40.6582 24.5273 39.9551 24C39.252 23.4609 37.9863 22.8984 36.1582 22.3125C34.3301 21.7148 32.8828 21.1289 31.8164 20.5547C28.9102 18.9844 27.457 16.8691 27.457 14.209C27.457 12.8262 27.8438 11.5957 28.6172 10.5176C29.4023 9.42773 30.5215 8.57813 31.9746 7.96875C33.4395 7.35937 35.0801 7.05469 36.8965 7.05469C38.7246 7.05469 40.3535 7.38867 41.7832 8.05664C43.2129 8.71289 44.3203 9.64453 45.1055 10.8516C45.9023 12.0586 46.3008 13.4297 46.3008 14.9648H41.0273C41.0273 13.793 40.6582 12.8848 39.9199 12.2402C39.1816 11.584 38.1445 11.2559 36.8086 11.2559C35.5195 11.2559 34.5176 11.5313 33.8027 12.082C33.0879 12.6211 32.7305 13.3359 32.7305 14.2266C32.7305 15.0586 33.1465 15.7559 33.9785 16.3184C34.8223 16.8809 36.0586 17.4082 37.6875 17.9004C40.6875 18.8027 42.873 19.9219 44.2441 21.2578C45.6152 22.5938 46.3008 24.2578 46.3008 26.25C46.3008 28.4648 45.4629 30.2051 43.7871 31.4707C42.1113 32.7246 39.8555 33.3516 37.0195 33.3516C35.0508 33.3516 33.2578 32.9941 31.6406 32.2793C30.0234 31.5527 28.7871 30.5625 27.9316 29.3086C27.0879 28.0547 26.666 26.6016 26.666 24.9492H31.957C31.957 27.7734 33.6445 29.1855 37.0195 29.1855C38.2734 29.1855 39.252 28.9336 39.9551 28.4297C40.6582 27.9141 41.0098 27.1992 41.0098 26.2852ZM65.2852 21.9082H55.1602V28.7637H67.043V33H49.8867V7.40625H67.0078V11.6777H55.1602V17.7773H65.2852V21.9082ZM83.4082 33H80.0332V7.40625H83.4082V33ZM92.1621 13.9805L92.2676 16.3711C93.7207 14.543 95.6191 13.6289 97.9629 13.6289C101.982 13.6289 104.01 15.8965 104.045 20.4316V33H100.793V20.4141C100.781 19.043 100.465 18.0293 99.8438 17.373C99.2344 16.7168 98.2793 16.3887 96.9785 16.3887C95.9238 16.3887 94.998 16.6699 94.2012 17.2324C93.4043 17.7949 92.7832 18.5332 92.3379 19.4473V33H89.0859V13.9805H92.1621ZM116.578 30.6973C117.738 30.6973 118.752 30.3457 119.619 29.6426C120.486 28.9395 120.967 28.0605 121.061 27.0059H124.137C124.078 28.0957 123.703 29.1328 123.012 30.1172C122.32 31.1016 121.395 31.8867 120.234 32.4727C119.086 33.0586 117.867 33.3516 116.578 33.3516C113.988 33.3516 111.926 32.4902 110.391 30.7676C108.867 29.0332 108.105 26.666 108.105 23.666V23.1211C108.105 21.2695 108.445 19.623 109.125 18.1816C109.805 16.7402 110.777 15.6211 112.043 14.8242C113.32 14.0273 114.826 13.6289 116.561 13.6289C118.693 13.6289 120.463 14.2676 121.869 15.5449C123.287 16.8223 124.043 18.4805 124.137 20.5195H121.061C120.967 19.2891 120.498 18.2812 119.654 17.4961C118.822 16.6992 117.791 16.3008 116.561 16.3008C114.908 16.3008 113.625 16.8984 112.711 18.0938C111.809 19.2773 111.357 20.9941 111.357 23.2441V23.8594C111.357 26.0508 111.809 27.7383 112.711 28.9219C113.613 30.1055 114.902 30.6973 116.578 30.6973Z" fill="white"/>
<path d="M3.37695 53.1475L5.09961 47.6035H6.45312L3.47949 56.1416C3.01921 57.3721 2.28776 57.9873 1.28516 57.9873L1.0459 57.9668L0.574219 57.8779V56.8525L0.916016 56.8799C1.3444 56.8799 1.67708 56.7933 1.91406 56.6201C2.1556 56.4469 2.35384 56.1302 2.50879 55.6699L2.78906 54.918L0.150391 47.6035H1.53125L3.37695 53.1475ZM13.1729 55H11.9014V52.3203C11.3454 52.4661 10.7757 52.5391 10.1924 52.5391C9.26725 52.5391 8.56087 52.3021 8.07324 51.8281C7.59017 51.3542 7.34408 50.6797 7.33496 49.8047V47.5967H8.59961V49.8457C8.6224 50.9486 9.15332 51.5 10.1924 51.5C10.7757 51.5 11.3454 51.4271 11.9014 51.2812V47.6035H13.1729V55ZM19.7695 55C19.6966 54.8542 19.6374 54.5944 19.5918 54.2207C19.0039 54.8314 18.3021 55.1367 17.4863 55.1367C16.7572 55.1367 16.1579 54.9316 15.6885 54.5215C15.2236 54.1068 14.9912 53.5827 14.9912 52.9492C14.9912 52.179 15.2829 51.582 15.8662 51.1582C16.4541 50.7298 17.279 50.5156 18.3408 50.5156H19.5713V49.9346C19.5713 49.4925 19.4391 49.1416 19.1748 48.8818C18.9105 48.6175 18.5208 48.4854 18.0059 48.4854C17.5547 48.4854 17.1764 48.5993 16.8711 48.8271C16.5658 49.055 16.4131 49.3307 16.4131 49.6543H15.1416C15.1416 49.2852 15.2715 48.9297 15.5312 48.5879C15.7956 48.2415 16.151 47.9681 16.5977 47.7676C17.0488 47.5671 17.5433 47.4668 18.0811 47.4668C18.9333 47.4668 19.6009 47.681 20.084 48.1094C20.5671 48.5332 20.8177 49.1188 20.8359 49.8662V53.2705C20.8359 53.9495 20.9225 54.4896 21.0957 54.8906V55H19.7695ZM17.6709 54.0361C18.0674 54.0361 18.4434 53.9336 18.7988 53.7285C19.1543 53.5234 19.4118 53.2568 19.5713 52.9287V51.4111H18.5801C17.0306 51.4111 16.2559 51.8646 16.2559 52.7715C16.2559 53.168 16.388 53.4779 16.6523 53.7012C16.9167 53.9245 17.2562 54.0361 17.6709 54.0361ZM25.7852 54.1045C26.2363 54.1045 26.6305 53.9678 26.9678 53.6943C27.305 53.4209 27.4919 53.0791 27.5283 52.6689H28.7246C28.7018 53.0928 28.556 53.4961 28.2871 53.8789C28.0182 54.2617 27.6582 54.5671 27.207 54.7949C26.7604 55.0228 26.2865 55.1367 25.7852 55.1367C24.778 55.1367 23.9759 54.8018 23.3789 54.1318C22.7865 53.4574 22.4902 52.5368 22.4902 51.3701V51.1582C22.4902 50.4382 22.6224 49.7979 22.8867 49.2373C23.151 48.6768 23.5293 48.2415 24.0215 47.9316C24.5182 47.6217 25.1038 47.4668 25.7783 47.4668C26.6077 47.4668 27.2959 47.7152 27.8428 48.2119C28.3942 48.7087 28.6882 49.3535 28.7246 50.1465H27.5283C27.4919 49.668 27.3096 49.276 26.9814 48.9707C26.6579 48.6608 26.2568 48.5059 25.7783 48.5059C25.1357 48.5059 24.6367 48.7383 24.2812 49.2031C23.9303 49.6634 23.7549 50.3311 23.7549 51.2061V51.4453C23.7549 52.2975 23.9303 52.9538 24.2812 53.4141C24.6322 53.8743 25.1335 54.1045 25.7852 54.1045ZM35.6426 48.6289H33.1611V55H31.8965V48.6289H29.4629V47.6035H35.6426V48.6289ZM42.916 55H41.6514V51.8418H38.2539V55H36.9824V47.6035H38.2539V50.8096H41.6514V47.6035H42.916V55ZM49.7383 47.6035H51.0029V55H49.7383V49.6064L46.3271 55H45.0625V47.6035H46.3271V53.0039L49.7383 47.6035ZM55.3369 51.8486H54.4141V55H53.1426V47.6035H54.4141V50.7344H55.2412L57.7295 47.6035H59.2607L56.335 51.1582L59.5068 55H57.9004L55.3369 51.8486Z" fill="white"/>
</svg>
