<svg viewBox="0 0 203 36" fill="none" xmlns="http://www.w3.org/2000/svg">
    <path fill-rule="evenodd" clip-rule="evenodd" d="M7.8498 20.2286H6.408V28.025H0V8H6.408V15.2891H7.9833L11.5077 8H18.0225L13.4835 17.3717L18.7167 28.025H11.6679L7.8498 20.2286ZM29.7171 20.7092H29.3433L25.2849 24.2603V28.025H19.1439V12.005H25.2849V18.0392H25.8189L29.7171 14.6216V12.005H35.8581V28.025H29.7171V20.7092ZM48.3003 22.3646H44.1351V28.025H37.9941V12.005H44.1351V17.4518H48.3003V12.005H54.4413V28.025H48.3003V22.3646ZM64.5873 11.7113C65.6909 11.7113 66.7144 11.8804 67.6578 12.2186C68.6012 12.5568 69.4156 13.073 70.1009 13.7672C70.7862 14.4614 71.3246 15.3291 71.7162 16.3705C72.1078 17.4118 72.3036 18.6266 72.3036 20.015C72.3036 21.4212 72.1078 22.6449 71.7162 23.6863C71.3246 24.7276 70.7862 25.5908 70.1009 26.2761C69.4156 26.9615 68.6057 27.4732 67.6712 27.8114C66.7366 28.1496 65.7265 28.3187 64.6407 28.3187H63.813C62.6738 28.3187 61.6236 28.1496 60.6624 27.8114C59.7012 27.4732 58.8735 26.9615 58.1793 26.2761C57.4851 25.5908 56.9422 24.7276 56.5506 23.6863C56.159 22.6449 55.9632 21.4212 55.9632 20.015C55.9632 18.6266 56.159 17.4118 56.5506 16.3705C56.9422 15.3291 57.4807 14.4614 58.166 13.7672C58.8513 13.073 59.6656 12.5568 60.609 12.2186C61.5524 11.8804 62.5848 11.7113 63.7062 11.7113H64.5873ZM64.2402 23.1923C64.9166 23.1923 65.464 22.9209 65.8822 22.378C66.3006 21.835 66.5097 21.0474 66.5097 20.015C66.5097 18.9826 66.3006 18.195 65.8822 17.6521C65.464 17.1091 64.9166 16.8377 64.2402 16.8377H64.0266C63.3146 16.8377 62.7539 17.1091 62.3445 17.6521C61.9351 18.195 61.7304 18.9826 61.7304 20.015C61.7304 21.0474 61.9351 21.835 62.3445 22.378C62.7539 22.9209 63.3146 23.1923 64.0266 23.1923H64.2402ZM73.5585 8H90.6465V28.025H84.2385V13.2065H79.9665V28.025H73.5585V8ZM100.525 11.7113C101.629 11.7113 102.653 11.8804 103.596 12.2186C104.539 12.5568 105.354 13.073 106.039 13.7672C106.724 14.4614 107.263 15.3291 107.654 16.3705C108.046 17.4118 108.242 18.6266 108.242 20.015C108.242 21.4212 108.046 22.6449 107.654 23.6863C107.263 24.7276 106.724 25.5908 106.039 26.2761C105.354 26.9615 104.544 27.4732 103.609 27.8114C102.675 28.1496 101.665 28.3187 100.579 28.3187H99.7512C98.612 28.3187 97.5618 28.1496 96.6006 27.8114C95.6394 27.4732 94.8117 26.9615 94.1175 26.2761C93.4233 25.5908 92.8804 24.7276 92.4888 23.6863C92.0972 22.6449 91.9014 21.4212 91.9014 20.015C91.9014 18.6266 92.0972 17.4118 92.4888 16.3705C92.8804 15.3291 93.4188 14.4614 94.1041 13.7672C94.7895 13.073 95.6038 12.5568 96.5472 12.2186C97.4906 11.8804 98.523 11.7113 99.6444 11.7113H100.525ZM100.178 23.1923C100.855 23.1923 101.402 22.9209 101.82 22.378C102.239 21.835 102.448 21.0474 102.448 20.015C102.448 18.9826 102.239 18.195 101.82 17.6521C101.402 17.1091 100.855 16.8377 100.178 16.8377H99.9648C99.2528 16.8377 98.6921 17.1091 98.2827 17.6521C97.8733 18.195 97.6686 18.9826 97.6686 20.015C97.6686 21.0474 97.8733 21.835 98.2827 22.378C98.6921 22.9209 99.2528 23.1923 99.9648 23.1923H100.178ZM120.337 20.7092H119.963L115.905 24.2603V28.025H109.764V12.005H115.905V18.0392H116.439L120.337 14.6216V12.005H126.478V28.025H120.337V20.7092ZM144.447 20.8427C144.394 22.1599 144.162 23.2902 143.753 24.2336C143.343 25.177 142.801 25.9557 142.124 26.5699C141.448 27.184 140.656 27.6334 139.748 27.9182C138.84 28.203 137.852 28.3454 136.784 28.3454H135.956C134.817 28.3454 133.763 28.1719 132.792 27.8248C131.822 27.4776 130.986 26.957 130.283 26.2628C129.58 25.5686 129.032 24.7009 128.641 23.6596C128.249 22.6182 128.062 21.4034 128.08 20.015C128.098 18.6266 128.302 17.4118 128.694 16.3705C129.086 15.3291 129.624 14.4614 130.309 13.7672C130.995 13.073 131.809 12.5524 132.752 12.2053C133.696 11.8581 134.728 11.6846 135.85 11.6846H136.731C137.781 11.6846 138.764 11.8314 139.681 12.1252C140.598 12.4189 141.399 12.8683 142.084 13.4735C142.769 14.0787 143.321 14.8307 143.739 15.7297C144.158 16.6286 144.394 17.6743 144.447 18.8669H138.6C138.511 18.1905 138.266 17.6832 137.865 17.345C137.465 17.0068 136.971 16.8377 136.384 16.8377H136.143C135.449 16.8377 134.897 17.1091 134.488 17.6521C134.079 18.195 133.874 18.9826 133.874 20.015C133.874 21.0474 134.079 21.835 134.488 22.378C134.897 22.9209 135.449 23.1923 136.143 23.1923H136.384C137.007 23.1923 137.523 22.9921 137.932 22.5916C138.342 22.191 138.573 21.6081 138.626 20.8427H144.447ZM153.178 21.9908H152.057V28.025H145.915V12.005H152.057V17.612H153.205L156.302 12.005H162.683L158.571 19.4543L163.484 28.025H156.649L153.178 21.9908Z" fill="white"/>
    <path fill-rule="evenodd" clip-rule="evenodd" d="M186.855 4.13512C196.049 3.13198 203 7.81328 203 14.891C203 22.4981 196.603 29.7152 184.695 32L188.711 11.4079L192.975 12.1602L190.317 25.8977C194.775 24.0864 198.181 20.1574 198.237 15.5876C198.32 9.98674 192.671 7.78541 185.969 8.70497L186.855 4.13512ZM180.12 15.9498H175.656L177.191 8.03621L172.954 7.22813L171.253 15.9498H167V19.9624H170.47L169.188 26.5385L173.452 27.3187L174.879 19.9624H179.338L177.246 30.6903L181.539 31.4427L185.554 10.8505L181.261 10.0982L180.12 15.9498Z" fill="white"/>
</svg>
