<svg viewBox="0 0 120 48" fill="none" xmlns="http://www.w3.org/2000/svg">
    <path d="M3.41309 39.6035L3.46094 40.376C3.98047 39.7699 4.69141 39.4668 5.59375 39.4668C6.58268 39.4668 7.25944 39.8451 7.62402 40.6016C8.16178 39.8451 8.91829 39.4668 9.89355 39.4668C10.7093 39.4668 11.3154 39.6924 11.7119 40.1436C12.113 40.5947 12.318 41.2601 12.3271 42.1396V47H10.666V42.1875C10.666 41.7181 10.5635 41.374 10.3584 41.1553C10.1533 40.9365 9.8138 40.8271 9.33984 40.8271C8.96159 40.8271 8.65169 40.9297 8.41016 41.1348C8.17318 41.3353 8.00684 41.5996 7.91113 41.9277L7.91797 47H6.25684V42.1328C6.23405 41.2624 5.78971 40.8271 4.92383 40.8271C4.25846 40.8271 3.78678 41.0983 3.50879 41.6406V47H1.84766V39.6035H3.41309ZM17.29 47.1367C16.2373 47.1367 15.3828 46.8063 14.7266 46.1455C14.0749 45.4801 13.749 44.596 13.749 43.4932V43.2881C13.749 42.5498 13.8903 41.8913 14.1729 41.3125C14.46 40.7292 14.861 40.2757 15.376 39.9521C15.891 39.6286 16.4652 39.4668 17.0986 39.4668C18.1058 39.4668 18.8828 39.7881 19.4297 40.4307C19.9811 41.0732 20.2568 41.9824 20.2568 43.1582V43.8281H15.4238C15.474 44.4388 15.6768 44.9219 16.0322 45.2773C16.3923 45.6328 16.8434 45.8105 17.3857 45.8105C18.1468 45.8105 18.7666 45.5029 19.2451 44.8877L20.1406 45.7422C19.8444 46.1842 19.4479 46.5283 18.9512 46.7744C18.459 47.016 17.9053 47.1367 17.29 47.1367ZM17.0918 40.7998C16.6361 40.7998 16.2669 40.9593 15.9844 41.2783C15.7064 41.5973 15.5286 42.0417 15.4512 42.6113H18.6162V42.4883C18.5798 41.9323 18.4316 41.513 18.1719 41.2305C17.9121 40.9434 17.5521 40.7998 17.0918 40.7998Z" fill="#FA7A02"/>
    <path d="M1.93359 33V7.40625H10.1777C12.4395 7.40625 14.4727 7.92187 16.2773 8.95312C18.082 9.97266 19.4883 11.4199 20.4961 13.2949C21.5156 15.1582 22.0312 17.25 22.043 19.5703V20.748C22.043 23.0918 21.5449 25.1953 20.5488 27.0586C19.5645 28.9102 18.1699 30.3633 16.3652 31.418C14.5723 32.4609 12.5684 32.9883 10.3535 33H1.93359ZM8.10352 12.1699V28.2539H10.248C12.0176 28.2539 13.377 27.627 14.3262 26.373C15.2754 25.1074 15.75 23.2324 15.75 20.748V19.6406C15.75 17.168 15.2754 15.3047 14.3262 14.0508C13.377 12.7969 11.9941 12.1699 10.1777 12.1699H8.10352ZM24.873 23.3145C24.873 21.4512 25.2363 19.7754 25.9629 18.2871C26.7012 16.7988 27.7207 15.6504 29.0215 14.8418C30.334 14.0332 31.8281 13.6289 33.5039 13.6289C36.0938 13.6289 38.1855 14.5254 39.7793 16.3184C41.3848 18.1113 42.1875 20.4961 42.1875 23.4727V23.7012C42.1875 25.5527 41.8301 27.2168 41.1152 28.6934C40.4121 30.1582 39.3984 31.3008 38.0742 32.1211C36.7617 32.9414 35.25 33.3516 33.5391 33.3516C30.9609 33.3516 28.8691 32.4551 27.2637 30.6621C25.6699 28.8691 24.873 26.4961 24.873 23.543V23.3145ZM28.1426 23.7012C28.1426 25.8105 28.6289 27.5039 29.6016 28.7812C30.5859 30.0586 31.8984 30.6973 33.5391 30.6973C35.1914 30.6973 36.5039 30.0527 37.4766 28.7637C38.4492 27.4629 38.9355 25.6465 38.9355 23.3145C38.9355 21.2285 38.4375 19.541 37.4414 18.252C36.457 16.9512 35.1445 16.3008 33.5039 16.3008C31.8984 16.3008 30.6035 16.9395 29.6191 18.2168C28.6348 19.4941 28.1426 21.3223 28.1426 23.7012ZM45.4043 23.3145C45.4043 21.4512 45.7676 19.7754 46.4941 18.2871C47.2324 16.7988 48.252 15.6504 49.5527 14.8418C50.8652 14.0332 52.3594 13.6289 54.0352 13.6289C56.625 13.6289 58.7168 14.5254 60.3105 16.3184C61.916 18.1113 62.7188 20.4961 62.7188 23.4727V23.7012C62.7188 25.5527 62.3613 27.2168 61.6465 28.6934C60.9434 30.1582 59.9297 31.3008 58.6055 32.1211C57.293 32.9414 55.7812 33.3516 54.0703 33.3516C51.4922 33.3516 49.4004 32.4551 47.7949 30.6621C46.2012 28.8691 45.4043 26.4961 45.4043 23.543V23.3145ZM48.6738 23.7012C48.6738 25.8105 49.1602 27.5039 50.1328 28.7812C51.1172 30.0586 52.4297 30.6973 54.0703 30.6973C55.7227 30.6973 57.0352 30.0527 58.0078 28.7637C58.9805 27.4629 59.4668 25.6465 59.4668 23.3145C59.4668 21.2285 58.9688 19.541 57.9727 18.252C56.9883 16.9512 55.6758 16.3008 54.0352 16.3008C52.4297 16.3008 51.1348 16.9395 50.1504 18.2168C49.166 19.4941 48.6738 21.3223 48.6738 23.7012ZM75.9902 16.8984C75.498 16.8164 74.9648 16.7754 74.3906 16.7754C72.2578 16.7754 70.8105 17.6836 70.0488 19.5V33H66.7969V13.9805H69.9609L70.0137 16.1777C71.0801 14.4785 72.5918 13.6289 74.5488 13.6289C75.1816 13.6289 75.6621 13.7109 75.9902 13.875V16.8984ZM98.5605 12.1699H90.8789V33H84.709V12.1699H77.168V7.40625H98.5605V12.1699ZM100.846 23.3145C100.846 21.4512 101.209 19.7754 101.936 18.2871C102.674 16.7988 103.693 15.6504 104.994 14.8418C106.307 14.0332 107.801 13.6289 109.477 13.6289C112.066 13.6289 114.158 14.5254 115.752 16.3184C117.357 18.1113 118.16 20.4961 118.16 23.4727V23.7012C118.16 25.5527 117.803 27.2168 117.088 28.6934C116.385 30.1582 115.371 31.3008 114.047 32.1211C112.734 32.9414 111.223 33.3516 109.512 33.3516C106.934 33.3516 104.842 32.4551 103.236 30.6621C101.643 28.8691 100.846 26.4961 100.846 23.543V23.3145ZM104.115 23.7012C104.115 25.8105 104.602 27.5039 105.574 28.7812C106.559 30.0586 107.871 30.6973 109.512 30.6973C111.164 30.6973 112.477 30.0527 113.449 28.7637C114.422 27.4629 114.908 25.6465 114.908 23.3145C114.908 21.2285 114.41 19.541 113.414 18.252C112.43 16.9512 111.117 16.3008 109.477 16.3008C107.871 16.3008 106.576 16.9395 105.592 18.2168C104.607 19.4941 104.115 21.3223 104.115 23.7012Z" fill="white"/>
</svg>
