<svg viewBox="0 0 339 57" fill="none" xmlns="http://www.w3.org/2000/svg">
    <g clip-path="url(#clip0_2:864)">
        <path d="M111.2 7.27002C106.321 7.26805 101.55 8.71258 97.4912 11.421C93.4324 14.1295 90.2675 17.9804 88.3966 22.487C86.5256 26.9935 86.0325 31.9536 86.9796 36.7404C87.9267 41.5271 90.2715 45.9257 93.7177 49.3802C97.1639 52.8347 101.557 55.1902 106.341 56.149C111.126 57.1077 116.087 56.6267 120.598 54.7666C125.109 52.9066 128.968 49.7511 131.686 45.6989C134.404 41.6466 135.86 36.8795 135.87 32C135.877 28.7556 135.244 25.5418 134.007 22.5423C132.77 19.5429 130.954 16.8168 128.663 14.5198C126.372 12.2229 123.65 10.4003 120.653 9.15632C117.657 7.91232 114.445 7.27133 111.2 7.27002Z" fill="white"/>
        <path d="M56.09 7.27019C52.6337 7.26451 49.2292 8.10998 46.1771 9.73195C43.125 11.3539 40.5193 13.7025 38.59 16.5702C36.0757 12.8315 32.4301 9.99622 28.1874 8.47984C23.9447 6.96347 19.3279 6.84567 15.0134 8.14372C10.6989 9.44176 6.91347 12.0874 4.21175 15.693C1.51004 19.2987 0.0340374 23.6748 0 28.1802H0V28.3702V55.1802H7.22V28.2602C7.23459 24.5763 8.71198 21.0491 11.3272 18.4546C13.9424 15.86 17.4811 14.4106 21.165 14.4252C24.8489 14.4398 28.376 15.9172 30.9706 18.5324C33.5652 21.1476 35.0146 24.6863 35 28.3702V55.1802H42.2V28.3202C42.2971 24.7022 43.8026 21.2649 46.3959 18.7402C48.9893 16.2156 52.4657 14.8028 56.085 14.8028C59.7043 14.8028 63.1807 16.2156 65.7741 18.7402C68.3674 21.2649 69.8729 24.7022 69.97 28.3202V55.1802H77.19V28.1802C77.1425 22.6163 74.8982 17.2966 70.9461 13.38C66.9939 9.46343 61.6541 7.26735 56.09 7.27019Z" fill="white"/>
        <path d="M166.15 7.28002C160.617 7.3192 155.32 9.53279 151.404 13.443C147.489 17.3532 145.267 22.6464 145.22 28.18V28.37V55.18H152.44V28.26C152.467 24.6031 153.935 21.1043 156.527 18.524C159.118 15.9437 162.623 14.4905 166.28 14.48H166.69V7.27002H166.16L166.15 7.28002Z" fill="white"/>
        <path d="M197.72 7.33009C193.338 7.32994 189.036 8.49627 185.254 10.7092C181.472 12.9222 178.348 16.1021 176.202 19.9221C174.056 23.7421 172.966 28.0646 173.043 32.4455C173.12 36.8264 174.362 41.1077 176.642 44.8496C178.921 48.5916 182.156 51.6592 186.013 53.7374C189.871 55.8156 194.212 56.8294 198.59 56.6747C202.969 56.52 207.228 55.2023 210.929 52.8571C214.63 50.5118 217.64 47.2236 219.65 43.3301L213.34 39.8401C211.638 43.2357 208.876 45.9839 205.472 47.668C202.068 49.3521 198.207 49.8803 194.476 49.1724C190.744 48.4646 187.345 46.5593 184.794 43.7455C182.243 40.9317 180.68 37.3629 180.34 33.5801H222.34C222.34 33.0801 222.42 32.5801 222.42 32.0601C222.426 28.8132 221.792 25.5969 220.554 22.5955C219.315 19.5941 217.496 16.8666 215.202 14.5693C212.907 12.272 210.182 10.45 207.182 9.20776C204.182 7.96553 200.967 7.32745 197.72 7.33009ZM181.05 26.7601C182.165 23.214 184.383 20.1162 187.38 17.917C190.377 15.7179 193.997 14.5321 197.715 14.5321C201.432 14.5321 205.053 15.7179 208.05 17.917C211.047 20.1162 213.264 23.214 214.38 26.7601H181.05Z" fill="white"/>
        <path d="M236.69 46.8999C235.782 46.8979 234.893 47.1655 234.137 47.6686C233.381 48.1718 232.791 48.8879 232.442 49.7265C232.093 50.565 232.001 51.4882 232.177 52.3792C232.353 53.2703 232.789 54.0891 233.431 54.732C234.072 55.3749 234.89 55.8131 235.781 55.991C236.671 56.1689 237.595 56.0786 238.434 55.7315C239.273 55.3844 239.991 54.7961 240.496 54.041C241 53.286 241.27 52.3982 241.27 51.4899C241.27 50.2743 240.788 49.1083 239.929 48.2478C239.07 47.3873 237.905 46.9026 236.69 46.8999Z" fill="white"/>
        <path d="M263.11 0H255.89V7.22H248.66V14H255.89V34.08V34.27C255.937 39.8036 258.158 45.0968 262.074 49.007C265.99 52.9172 271.286 55.1308 276.82 55.17H277.35V48H277C273.343 47.9896 269.838 46.5363 267.246 43.956C264.655 41.3757 263.186 37.8769 263.16 34.22V14H277.41V7.22H263.11V0Z" fill="white"/>
        <path d="M330.02 7.31021L310.97 46.8402L291.92 7.31021L291.78 7.22021H283.82L306.9 55.2102H315.04L338.13 7.31021H330.02Z" fill="white"/>
    </g>
    <defs>
        <clipPath id="clip0_2:864">
            <rect width="338.13" height="56.69" fill="white"/>
        </clipPath>
    </defs>
</svg>
