<svg viewBox="0 0 220 40" fill="none" xmlns="http://www.w3.org/2000/svg">
    <g clip-path="url(#clip0_2:861)">
        <path d="M215.212 1.30383C215.853 1.30518 216.467 1.56026 216.92 2.01325C217.373 2.46624 217.628 3.08023 217.629 3.72085V36.1898C217.629 36.8308 217.374 37.4456 216.921 37.8989C216.468 38.3522 215.853 38.6068 215.212 38.6068H4.78482C4.1442 38.6055 3.5302 38.3504 3.07721 37.8974C2.62423 37.4444 2.36914 36.8304 2.36779 36.1898V3.72085C2.36779 3.07982 2.62244 2.46504 3.07572 2.01176C3.529 1.55848 4.14378 1.30383 4.78482 1.30383H215.212ZM215.212 0H4.78482C3.7984 0.00135095 2.85277 0.393802 2.15527 1.0913C1.45777 1.78881 1.06532 2.73444 1.06396 3.72085L1.06396 36.1898C1.06464 37.1764 1.45688 38.1224 2.15452 38.8201C2.85217 39.5177 3.79819 39.91 4.78482 39.9106H215.215C216.202 39.9093 217.147 39.5168 217.845 38.8193C218.543 38.1218 218.935 37.1762 218.936 36.1898V3.72085C218.934 2.73426 218.54 1.7889 217.842 1.09159C217.144 0.394283 216.199 0.00179666 215.212 0V0Z" fill="white"/>
        <path d="M59.7107 9.54543C58.0766 8.19394 55.8272 7.51989 52.9609 7.51989H43.4383C43.1762 7.51989 42.9685 7.605 42.8153 7.7684C42.6621 7.93521 42.5838 8.14628 42.5838 8.4084V31.5369C42.5838 31.7752 42.6655 31.9761 42.8323 32.1395C42.9105 32.2197 43.0043 32.2831 43.108 32.3257C43.2116 32.3683 43.3229 32.3892 43.4349 32.3871H46.846C47.1047 32.3871 47.3192 32.3097 47.486 32.1556C47.6528 32.0024 47.7345 31.7948 47.7345 31.5327V23.2237H52.9566C55.823 23.2237 58.0732 22.5667 59.7072 21.2527C61.3413 19.9386 62.1583 18.0016 62.1583 15.445C62.1617 12.8612 61.3447 10.8969 59.7107 9.54543ZM55.9294 18.2671C55.2077 18.9173 54.1592 19.2441 52.7838 19.2441H47.6672V11.4995H52.7838C54.2068 11.4995 55.2655 11.8433 55.9634 12.531C56.6613 13.2186 57.0119 14.1786 57.0119 15.4076C57.0119 16.6637 56.6511 17.6169 55.9294 18.2671ZM83.0102 22.1956C84.5004 21.6748 85.6613 20.8271 86.4919 19.6561C87.3226 18.485 87.7345 17.0314 87.7345 15.3054C87.7345 12.8169 86.9107 10.9003 85.2664 9.54883C83.6187 8.19734 81.3413 7.5233 78.4281 7.5233H69.2255C68.9634 7.5233 68.7558 7.6084 68.6026 7.77181C68.4494 7.93862 68.3711 8.14968 68.3711 8.41181V31.5395C68.3711 31.7778 68.4528 31.9795 68.6196 32.1429C68.6982 32.2235 68.7926 32.287 68.8969 32.3296C69.0011 32.3722 69.113 32.393 69.2255 32.3905H72.4936C72.7558 32.3905 72.9668 32.3097 73.1336 32.1429C73.2142 32.0647 73.2778 31.9708 73.3205 31.867C73.3633 31.7632 73.3842 31.6517 73.3821 31.5395V23.0127H78.2502L82.7975 31.4314C82.9609 31.7148 83.1515 31.9463 83.366 32.1267C83.5804 32.3037 83.8732 32.3922 84.2545 32.3922H87.5226C87.7156 32.3909 87.9003 32.3135 88.0366 32.1769C88.1108 32.1102 88.1699 32.0284 88.2098 31.9369C88.2497 31.8454 88.2696 31.7465 88.2681 31.6467C88.2681 31.5276 88.2341 31.3982 88.1626 31.2552L83.0094 22.1956H83.0102ZM81.5183 18.0186C80.8068 18.645 79.7413 18.9616 78.3217 18.9616H73.383V11.4995H78.3217C79.7413 11.4995 80.8102 11.8263 81.5183 12.4765C82.2298 13.1267 82.5838 14.0561 82.5838 15.2646C82.5838 16.4731 82.2264 17.3922 81.5183 18.0186ZM111.367 28.268H99.4281V21.8382H110.298C110.557 21.8382 110.771 21.7599 110.938 21.6067C111.105 21.4535 111.186 21.2459 111.186 20.9837V18.7471C111.186 18.4884 111.105 18.2739 110.938 18.1071C110.771 17.9403 110.56 17.8586 110.298 17.8586H99.4281V11.6424H111.081C111.34 11.6424 111.554 11.5641 111.721 11.411C111.888 11.2578 111.969 11.0501 111.969 10.788V8.4084C111.969 8.14628 111.888 7.93521 111.721 7.7684C111.554 7.6016 111.343 7.51989 111.081 7.51989H95.4145C95.1524 7.51989 94.9447 7.605 94.7915 7.7684C94.6383 7.93521 94.56 8.14628 94.56 8.4084V31.5369C94.56 31.7752 94.6417 31.9761 94.8085 32.1395C94.8867 32.2197 94.9805 32.2831 95.0841 32.3257C95.1878 32.3683 95.299 32.3892 95.4111 32.3871H111.363C111.622 32.3871 111.837 32.3097 112.003 32.1556C112.17 32.0024 112.252 31.7948 112.252 31.5327V29.1156C112.252 28.8578 112.167 28.6501 112.003 28.4935C111.84 28.3471 111.629 28.2688 111.367 28.2688V28.268ZM141.242 7.51904H138.399C137.95 7.51904 137.592 7.74458 137.334 8.19394L130.477 20.9122L123.622 8.19394C123.36 7.74458 123.006 7.51989 122.557 7.51989H119.68C119.418 7.51989 119.21 7.605 119.057 7.7684C118.904 7.93521 118.826 8.14628 118.826 8.4084V31.5369C118.826 31.7752 118.907 31.9761 119.074 32.1395C119.153 32.22 119.247 32.2836 119.351 32.3262C119.456 32.3688 119.567 32.3895 119.68 32.3871H122.734C122.992 32.3871 123.2 32.3054 123.357 32.1395C123.51 31.9718 123.588 31.771 123.588 31.5361V16.2595L128.528 25.6382C128.834 26.159 129.239 26.4212 129.736 26.4212H131.226C131.747 26.4212 132.139 26.1624 132.397 25.6382L137.337 16.2595V31.5378C137.337 31.7761 137.419 31.9769 137.586 32.1403C137.664 32.2209 137.759 32.2845 137.863 32.3271C137.967 32.3697 138.079 32.3904 138.192 32.388H141.245C141.504 32.388 141.718 32.3105 141.885 32.1565C142.049 32.0033 142.134 31.7956 142.134 31.5335V8.405C142.134 8.14287 142.049 7.93181 141.885 7.765C141.711 7.60185 141.48 7.51379 141.242 7.51989V7.51904ZM154.062 7.51904H150.651C150.413 7.51904 150.212 7.59819 150.045 7.75138C149.878 7.90457 149.797 8.11223 149.797 8.37436V31.5361C149.797 31.7744 149.878 31.9761 150.045 32.1395C150.124 32.22 150.218 32.2836 150.322 32.3262C150.427 32.3688 150.538 32.3895 150.651 32.3871H154.062C154.321 32.3871 154.529 32.3054 154.685 32.1395C154.838 31.9718 154.917 31.771 154.917 31.5361V8.37436C154.917 8.11564 154.838 7.90798 154.685 7.75138C154.529 7.59819 154.321 7.51989 154.062 7.51989V7.51904ZM179.41 28.268H167.471V21.8382H178.341C178.6 21.8382 178.814 21.7599 178.981 21.6067C179.148 21.4535 179.23 21.2459 179.23 20.9837V18.7471C179.23 18.4884 179.148 18.2739 178.981 18.1071C178.814 17.9403 178.603 17.8586 178.341 17.8586H167.471V11.6424H179.124C179.383 11.6424 179.597 11.5641 179.764 11.411C179.931 11.2578 180.013 11.0501 180.013 10.788V8.4084C180.013 8.14628 179.931 7.93521 179.764 7.7684C179.597 7.6016 179.386 7.51989 179.124 7.51989H163.458C163.196 7.51989 162.988 7.605 162.835 7.7684C162.682 7.93521 162.603 8.14628 162.603 8.4084V31.5369C162.603 31.7752 162.685 31.9761 162.852 32.1395C162.931 32.22 163.025 32.2836 163.129 32.3262C163.233 32.3688 163.345 32.3895 163.458 32.3871H179.41C179.669 32.3871 179.883 32.3097 180.05 32.1556C180.217 32.0024 180.299 31.7948 180.299 31.5327V29.1156C180.299 28.8578 180.214 28.6501 180.05 28.4935C179.873 28.341 179.644 28.2608 179.41 28.2688V28.268ZM206.654 31.2535L201.503 22.1956C202.994 21.6748 204.155 20.8271 204.986 19.6561C205.816 18.485 206.228 17.0314 206.228 15.3054C206.228 12.8169 205.404 10.9003 203.76 9.54883C202.112 8.19734 199.835 7.5233 196.921 7.5233H187.719C187.457 7.5233 187.249 7.6084 187.096 7.77181C186.943 7.93862 186.865 8.14968 186.865 8.41181V31.5395C186.865 31.7778 186.946 31.9795 187.113 32.1429C187.192 32.2235 187.286 32.287 187.39 32.3296C187.495 32.3722 187.607 32.393 187.719 32.3905H190.987C191.249 32.3905 191.46 32.3097 191.627 32.1429C191.708 32.0647 191.771 31.9708 191.814 31.867C191.857 31.7632 191.878 31.6517 191.876 31.5395V23.0127H196.744L201.292 31.4314C201.455 31.7148 201.646 31.9463 201.86 32.1267C202.075 32.3037 202.368 32.3922 202.749 32.3922H206.017C206.21 32.3909 206.395 32.3135 206.531 32.1769C206.605 32.1102 206.664 32.0284 206.704 31.9369C206.744 31.8454 206.764 31.7465 206.763 31.6467C206.763 31.5276 206.725 31.3948 206.654 31.2552V31.2535ZM200.012 18.0186C199.3 18.645 198.235 18.9616 196.815 18.9616H191.876V11.4995H196.815C198.235 11.4995 199.304 11.8263 200.012 12.4765C200.723 13.1267 201.077 14.0561 201.077 15.2646C201.077 16.4731 200.72 17.3922 200.012 18.0186ZM35.0723 19.6322C34.9728 19.3701 34.7489 19.125 34.3975 18.9241L15.0587 7.7616C14.0783 7.19649 13.2749 7.65947 13.2749 8.78968V31.1173C13.2749 32.251 14.0783 32.7148 15.0587 32.1463L34.3975 20.9803C34.7481 20.7795 34.9728 20.531 35.0715 20.2722C35.1124 20.1667 35.1328 20.0578 35.1328 19.9522C35.1328 19.8467 35.1124 19.7378 35.0715 19.6322H35.0723Z" fill="white"/>
    </g>
    <defs>
        <clipPath id="clip0_2:861">
            <rect width="220" height="40" fill="white"/>
        </clipPath>
    </defs>
</svg>
