<svg width="848" height="541" viewBox="0 0 848 541" fill="none" xmlns="http://www.w3.org/2000/svg">
<g filter="url(#filter0_b_2:827)">
<rect x="604.789" width="242.239" height="242.239" rx="25" fill="#E0E4FC" fill-opacity="0.1"/>
</g>
<g filter="url(#filter1_b_2:827)">
<rect x="298.761" width="242.239" height="242.239" rx="25" fill="#E0E4FC" fill-opacity="0.1"/>
</g>
<g clip-path="url(#clip0_2:827)">
<path d="M393.141 109.99C392.624 108.068 391.101 106.547 389.177 106.031C385.702 105.084 371.715 105.084 371.715 105.084C371.715 105.084 357.728 105.113 354.253 106.059C352.328 106.576 350.806 108.096 350.289 110.019C349.37 113.49 349.37 120.748 349.37 120.748C349.37 120.748 349.37 128.007 350.318 131.507C350.835 133.429 352.357 134.95 354.281 135.466C357.757 136.413 371.744 136.413 371.744 136.413C371.744 136.413 385.731 136.413 389.206 135.466C391.13 134.95 392.652 133.429 393.169 131.507C394.117 128.036 394.117 120.748 394.117 120.748C394.117 120.748 394.088 113.49 393.141 109.99Z" fill="white"/>
<path d="M414.279 133.573C413.389 132.97 412.757 132.052 412.384 130.79C412.01 129.528 411.838 127.864 411.838 125.769V122.929C411.838 120.835 412.039 119.113 412.47 117.851C412.901 116.56 413.561 115.642 414.48 115.068C415.399 114.494 416.577 114.179 418.042 114.179C419.478 114.179 420.655 114.466 421.517 115.068C422.378 115.671 423.039 116.589 423.441 117.851C423.843 119.113 424.044 120.806 424.044 122.9V125.741C424.044 127.835 423.843 129.499 423.441 130.761C423.039 132.024 422.407 132.942 421.517 133.544C420.626 134.118 419.42 134.433 417.927 134.433C416.376 134.462 415.169 134.147 414.279 133.573ZM419.248 130.503C419.506 129.872 419.621 128.81 419.621 127.376V121.265C419.621 119.859 419.506 118.826 419.248 118.195C418.989 117.535 418.559 117.22 417.955 117.22C417.352 117.22 416.95 117.535 416.692 118.195C416.433 118.855 416.318 119.859 416.318 121.265V127.376C416.318 128.81 416.433 129.872 416.663 130.503C416.893 131.134 417.324 131.45 417.955 131.45C418.559 131.45 418.989 131.134 419.248 130.503Z" fill="white"/>
<path d="M482.204 125.827V126.831C482.204 128.093 482.232 129.04 482.319 129.671C482.405 130.302 482.548 130.761 482.778 131.048C483.008 131.335 483.381 131.478 483.869 131.478C484.53 131.478 484.99 131.22 485.219 130.704C485.478 130.187 485.593 129.327 485.621 128.15L489.441 128.38C489.47 128.552 489.47 128.782 489.47 129.069C489.47 130.876 488.982 132.224 487.976 133.114C486.971 134.003 485.593 134.462 483.783 134.462C481.6 134.462 480.078 133.774 479.217 132.425C478.355 131.077 477.896 128.954 477.896 126.113V122.642C477.896 119.716 478.355 117.564 479.245 116.216C480.164 114.867 481.715 114.179 483.898 114.179C485.42 114.179 486.569 114.466 487.373 115.011C488.178 115.556 488.752 116.416 489.097 117.593C489.441 118.769 489.585 120.376 489.585 122.441V125.798H482.204V125.827ZM482.778 117.564C482.548 117.851 482.405 118.281 482.319 118.912C482.232 119.544 482.204 120.49 482.204 121.781V123.187H485.42V121.781C485.42 120.519 485.392 119.572 485.305 118.912C485.219 118.253 485.076 117.794 484.846 117.535C484.616 117.277 484.272 117.134 483.812 117.134C483.324 117.162 482.979 117.306 482.778 117.564Z" fill="white"/>
<path d="M403.538 125.453L398.512 107.321H402.906L404.658 115.526C405.117 117.563 405.433 119.285 405.663 120.691H405.778C405.922 119.658 406.266 117.965 406.783 115.555L408.593 107.321H412.987L407.903 125.424V134.117H403.567V125.453H403.538Z" fill="white"/>
<path d="M438.29 114.551V134.146H434.844L434.47 131.736H434.384C433.436 133.543 432.029 134.461 430.162 134.461C428.87 134.461 427.893 134.031 427.29 133.17C426.658 132.31 426.371 130.99 426.371 129.182V114.551H430.794V128.924C430.794 129.785 430.88 130.416 431.081 130.789C431.282 131.162 431.598 131.334 432.029 131.334C432.402 131.334 432.776 131.219 433.12 130.99C433.465 130.76 433.724 130.445 433.896 130.1V114.551H438.29Z" fill="white"/>
<path d="M460.95 114.551V134.146H457.504L457.13 131.736H457.044C456.097 133.543 454.689 134.461 452.822 134.461C451.53 134.461 450.553 134.031 449.95 133.17C449.318 132.31 449.031 130.99 449.031 129.182V114.551H453.454V128.924C453.454 129.785 453.54 130.416 453.741 130.789C453.942 131.162 454.258 131.334 454.689 131.334C455.063 131.334 455.436 131.219 455.781 130.99C456.125 130.76 456.384 130.445 456.556 130.1V114.551H460.95Z" fill="white"/>
<path d="M450.295 110.879H445.901V134.146H441.593V110.879H437.198V107.321H450.266V110.879H450.295Z" fill="white"/>
<path d="M475.541 117.678C475.282 116.445 474.851 115.555 474.248 114.982C473.645 114.436 472.841 114.15 471.778 114.15C470.974 114.15 470.199 114.379 469.509 114.838C468.791 115.297 468.274 115.9 467.872 116.646H467.843V106.317H463.593V134.117H467.24L467.7 132.253H467.786C468.131 132.912 468.648 133.429 469.308 133.831C469.997 134.203 470.744 134.404 471.577 134.404C473.071 134.404 474.162 133.716 474.88 132.339C475.569 130.962 475.943 128.81 475.943 125.912V122.814C475.943 120.633 475.799 118.912 475.541 117.678ZM471.491 125.683C471.491 127.117 471.434 128.236 471.319 129.039C471.204 129.843 471.003 130.416 470.716 130.761C470.428 131.105 470.055 131.277 469.595 131.277C469.222 131.277 468.906 131.191 468.59 131.019C468.274 130.847 468.044 130.589 467.843 130.244V119.113C467.987 118.568 468.246 118.137 468.619 117.793C468.992 117.449 469.366 117.277 469.796 117.277C470.256 117.277 470.601 117.449 470.83 117.793C471.089 118.137 471.232 118.74 471.347 119.572C471.434 120.404 471.491 121.58 471.491 123.129V125.683Z" fill="white"/>
</g>
<g filter="url(#filter2_b_2:827)">
<rect x="604.789" y="298.761" width="242.239" height="242.239" rx="25" fill="#E0E4FC" fill-opacity="0.1"/>
</g>
<g clip-path="url(#clip1_2:827)">
<path fill-rule="evenodd" clip-rule="evenodd" d="M649.886 421.681H648.722V427.976H643.548V411.807H648.722V417.692H649.994L652.84 411.807H658.1L654.435 419.374L658.661 427.976H652.969L649.886 421.681ZM667.543 422.069H667.241L663.964 424.936V427.976H659.006V415.041H663.964V419.913H664.396L667.543 417.153V415.041H672.502V427.976H667.543V422.069ZM682.549 423.406H679.185V427.976H674.227V415.041H679.185V419.439H682.549V415.041H687.507V427.976H682.549V423.406ZM695.7 414.803C696.591 414.803 697.417 414.94 698.179 415.213C698.941 415.486 699.598 415.903 700.152 416.463C700.705 417.024 701.14 417.725 701.456 418.566C701.772 419.406 701.93 420.387 701.93 421.508C701.93 422.644 701.772 423.632 701.456 424.473C701.14 425.314 700.705 426.011 700.152 426.564C699.598 427.117 698.944 427.531 698.19 427.804C697.435 428.077 696.62 428.213 695.743 428.213H695.074C694.155 428.213 693.307 428.077 692.53 427.804C691.754 427.531 691.086 427.117 690.525 426.564C689.965 426.011 689.527 425.314 689.21 424.473C688.894 423.632 688.736 422.644 688.736 421.508C688.736 420.387 688.894 419.406 689.21 418.566C689.527 417.725 689.961 417.024 690.515 416.463C691.068 415.903 691.726 415.486 692.487 415.213C693.249 414.94 694.083 414.803 694.988 414.803H695.7ZM695.419 424.074C695.966 424.074 696.408 423.855 696.745 423.416C697.083 422.978 697.252 422.342 697.252 421.508C697.252 420.675 697.083 420.039 696.745 419.6C696.408 419.162 695.966 418.943 695.419 418.943H695.247C694.672 418.943 694.219 419.162 693.889 419.6C693.558 420.039 693.393 420.675 693.393 421.508C693.393 422.342 693.558 422.978 693.889 423.416C694.219 423.855 694.672 424.074 695.247 424.074H695.419ZM702.944 411.807H716.742V427.976H711.567V416.011H708.118V427.976H702.944V411.807ZM724.718 414.803C725.609 414.803 726.436 414.94 727.198 415.213C727.959 415.486 728.617 415.903 729.17 416.463C729.724 417.024 730.159 417.725 730.474 418.566C730.791 419.406 730.949 420.387 730.949 421.508C730.949 422.644 730.791 423.632 730.474 424.473C730.159 425.314 729.724 426.011 729.17 426.564C728.617 427.117 727.963 427.531 727.208 427.804C726.454 428.077 725.639 428.213 724.762 428.213H724.093C723.173 428.213 722.325 428.077 721.549 427.804C720.773 427.531 720.105 427.117 719.544 426.564C718.984 426.011 718.545 425.314 718.229 424.473C717.913 423.632 717.755 422.644 717.755 421.508C717.755 420.387 717.913 419.406 718.229 418.566C718.545 417.725 718.98 417.024 719.533 416.463C720.087 415.903 720.744 415.486 721.506 415.213C722.268 414.94 723.102 414.803 724.007 414.803H724.718ZM724.438 424.074C724.985 424.074 725.426 423.855 725.764 423.416C726.102 422.978 726.271 422.342 726.271 421.508C726.271 420.675 726.102 420.039 725.764 419.6C725.426 419.162 724.985 418.943 724.438 418.943H724.266C723.691 418.943 723.238 419.162 722.907 419.6C722.577 420.039 722.412 420.675 722.412 421.508C722.412 422.342 722.577 422.978 722.907 423.416C723.238 423.855 723.691 424.074 724.266 424.074H724.438ZM740.715 422.069H740.414L737.137 424.936V427.976H732.178V415.041H737.137V419.913H737.568L740.715 417.153V415.041H745.674V427.976H740.715V422.069ZM760.183 422.177C760.141 423.24 759.953 424.153 759.623 424.915C759.292 425.676 758.854 426.305 758.308 426.801C757.762 427.297 757.122 427.66 756.389 427.89C755.656 428.12 754.858 428.235 753.996 428.235H753.327C752.408 428.235 751.556 428.095 750.772 427.814C749.989 427.534 749.314 427.114 748.747 426.553C748.179 425.993 747.736 425.292 747.421 424.451C747.104 423.61 746.953 422.629 746.968 421.508C746.982 420.387 747.147 419.406 747.463 418.566C747.78 417.725 748.214 417.024 748.768 416.463C749.321 415.903 749.979 415.483 750.74 415.202C751.502 414.922 752.336 414.782 753.242 414.782H753.953C754.801 414.782 755.595 414.9 756.335 415.138C757.075 415.375 757.722 415.738 758.275 416.226C758.829 416.715 759.274 417.322 759.612 418.048C759.95 418.774 760.141 419.618 760.183 420.581H755.462C755.39 420.035 755.193 419.625 754.869 419.352C754.546 419.079 754.147 418.943 753.673 418.943H753.478C752.918 418.943 752.472 419.162 752.142 419.6C751.812 420.039 751.646 420.675 751.646 421.508C751.646 422.342 751.812 422.978 752.142 423.416C752.472 423.855 752.918 424.074 753.478 424.074H753.673C754.176 424.074 754.593 423.912 754.923 423.589C755.254 423.265 755.44 422.795 755.483 422.177H760.183ZM767.233 423.104H766.328V427.976H761.369V415.041H766.328V419.568H767.255L769.756 415.041H774.908L771.588 421.056L775.555 427.976H770.036L767.233 423.104Z" fill="white"/>
<path fill-rule="evenodd" clip-rule="evenodd" d="M794.427 408.685C801.851 407.875 807.463 411.655 807.463 417.37C807.463 423.513 802.298 429.34 792.683 431.185L795.925 414.558L799.368 415.165L797.222 426.258C800.822 424.795 803.572 421.623 803.617 417.933C803.684 413.41 799.123 411.633 793.711 412.375L794.427 408.685ZM788.988 418.225H785.384L786.623 411.835L783.202 411.183L781.829 418.225H778.395V421.465H781.196L780.161 426.775L783.604 427.405L784.757 421.465H788.357L786.668 430.128L790.134 430.735L793.376 414.108L789.91 413.5L788.988 418.225Z" fill="white"/>
</g>
<g filter="url(#filter3_b_2:827)">
<rect x="298.761" y="298.761" width="242.239" height="242.239" rx="25" fill="#E0E4FC" fill-opacity="0.1"/>
</g>
<g clip-path="url(#clip2_2:827)">
<path d="M392.52 409.674C390.213 409.673 387.957 410.372 386.038 411.684C384.119 412.996 382.622 414.861 381.738 417.043C380.853 419.226 380.62 421.628 381.068 423.946C381.515 426.264 382.624 428.394 384.254 430.067C385.883 431.74 387.96 432.881 390.222 433.345C392.485 433.809 394.83 433.576 396.963 432.675C399.096 431.775 400.921 430.246 402.206 428.284C403.491 426.322 404.18 424.013 404.185 421.65C404.188 420.079 403.888 418.522 403.303 417.07C402.719 415.617 401.86 414.297 400.777 413.185C399.693 412.072 398.406 411.19 396.99 410.587C395.573 409.985 394.054 409.674 392.52 409.674Z" fill="white"/>
<path d="M366.462 409.674C364.828 409.671 363.218 410.081 361.775 410.866C360.332 411.652 359.1 412.789 358.188 414.178C356.999 412.367 355.275 410.994 353.269 410.26C351.263 409.526 349.08 409.468 347.04 410.097C345 410.726 343.21 412.007 341.933 413.753C340.655 415.499 339.958 417.618 339.941 419.8V419.8V419.892V432.876H343.355V419.839C343.362 418.055 344.061 416.347 345.297 415.09C346.534 413.834 348.207 413.132 349.949 413.139C351.691 413.146 353.358 413.862 354.585 415.128C355.812 416.395 356.497 418.108 356.49 419.892V419.892V432.876H359.895V419.868C359.941 418.116 360.653 416.451 361.879 415.229C363.105 414.006 364.749 413.322 366.46 413.322C368.171 413.322 369.815 414.006 371.041 415.229C372.267 416.451 372.979 418.116 373.025 419.868V432.876H376.439V419.8C376.417 417.106 375.355 414.53 373.487 412.633C371.618 410.736 369.093 409.673 366.462 409.674V409.674Z" fill="white"/>
<path d="M418.502 409.679C415.885 409.698 413.381 410.77 411.529 412.663C409.678 414.557 408.628 417.12 408.605 419.8V419.8V419.892V432.876H412.019V419.839C412.032 418.068 412.726 416.373 413.951 415.124C415.177 413.874 416.834 413.171 418.563 413.165H418.757V409.674H418.507L418.502 409.679Z" fill="white"/>
<path d="M433.43 409.703C431.358 409.703 429.323 410.268 427.535 411.34C425.747 412.411 424.27 413.951 423.255 415.801C422.241 417.651 421.725 419.744 421.762 421.866C421.798 423.988 422.385 426.061 423.463 427.873C424.541 429.685 426.07 431.171 427.894 432.177C429.718 433.184 431.771 433.675 433.841 433.6C435.912 433.525 437.925 432.887 439.675 431.751C441.425 430.615 442.848 429.023 443.799 427.137L440.815 425.447C440.011 427.091 438.705 428.422 437.095 429.238C435.485 430.053 433.66 430.309 431.896 429.966C430.131 429.624 428.524 428.701 427.318 427.338C426.112 425.976 425.372 424.247 425.212 422.415H445.071C445.071 422.173 445.108 421.931 445.108 421.679C445.112 420.107 444.812 418.549 444.226 417.096C443.64 415.642 442.781 414.321 441.696 413.209C440.611 412.096 439.322 411.214 437.904 410.612C436.485 410.011 434.965 409.702 433.43 409.703V409.703ZM425.548 419.113C426.075 417.395 427.123 415.895 428.541 414.83C429.958 413.765 431.67 413.191 433.427 413.191C435.185 413.191 436.897 413.765 438.314 414.83C439.731 415.895 440.779 417.395 441.307 419.113H425.548Z" fill="white"/>
<path d="M451.855 428.866C451.425 428.865 451.005 428.995 450.648 429.238C450.29 429.482 450.011 429.829 449.846 430.235C449.681 430.641 449.638 431.088 449.721 431.52C449.804 431.951 450.01 432.348 450.314 432.659C450.617 432.97 451.004 433.183 451.425 433.269C451.846 433.355 452.283 433.311 452.679 433.143C453.076 432.975 453.415 432.69 453.654 432.324C453.893 431.959 454.02 431.529 454.02 431.089C454.02 430.5 453.792 429.936 453.386 429.519C452.98 429.102 452.429 428.867 451.855 428.866V428.866Z" fill="white"/>
<path d="M464.347 406.153H460.933V409.65H457.515V412.933H460.933V422.658V422.75C460.955 425.429 462.006 427.993 463.857 429.886C465.709 431.78 468.213 432.852 470.83 432.871H471.08V429.399H470.915C469.185 429.394 467.528 428.69 466.303 427.44C465.077 426.191 464.383 424.496 464.371 422.725V412.933H471.108V409.65H464.347V406.153Z" fill="white"/>
<path d="M495.984 409.693L486.977 428.837L477.97 409.693L477.903 409.649H474.14L485.053 432.89H488.901L499.819 409.693H495.984Z" fill="white"/>
</g>
<g filter="url(#filter4_b_2:827)">
<rect width="242.239" height="242.239" rx="25" fill="#E0E4FC" fill-opacity="0.1"/>
</g>
<g filter="url(#filter5_b_2:827)">
<rect y="298.761" width="242.239" height="242.239" rx="25" fill="#E0E4FC" fill-opacity="0.1"/>
</g>
<path d="M691.051 101.302V126.896H685.76V105.573H678.94L678.518 114.608C678.342 117.655 677.956 120.058 677.358 121.815C676.76 123.562 675.887 124.845 674.739 125.665C673.59 126.474 672.02 126.884 670.028 126.896H668.657V122.659L669.536 122.571C670.86 122.396 671.803 121.634 672.366 120.286C672.94 118.927 673.303 116.513 673.456 113.044L673.895 101.302H691.051ZM700.825 115.171H703.567C703.942 112.804 704.909 110.94 706.467 109.581C708.038 108.21 710.012 107.524 712.391 107.524C714.957 107.524 717.049 108.31 718.666 109.88C720.295 111.45 721.204 113.583 721.391 116.278L721.426 117.579C721.426 120.497 720.612 122.841 718.983 124.61C717.354 126.368 715.168 127.247 712.426 127.247C709.954 127.247 707.926 126.532 706.344 125.103C704.774 123.673 703.831 121.733 703.514 119.284H700.825V126.896H695.727V107.876H700.825V115.171ZM708.489 117.579C708.489 119.384 708.829 120.767 709.508 121.728C710.188 122.677 711.161 123.151 712.426 123.151C713.68 123.151 714.647 122.677 715.327 121.728C716.006 120.778 716.346 119.272 716.346 117.21C716.346 115.44 716 114.069 715.309 113.097C714.618 112.124 713.645 111.638 712.391 111.638C711.149 111.638 710.188 112.124 709.508 113.097C708.829 114.058 708.489 115.552 708.489 117.579ZM733.977 108.931C736.414 108.931 738.36 109.739 739.813 111.356C741.266 112.974 741.993 115.171 741.993 117.948V118.194C741.993 120.937 741.184 123.134 739.567 124.786C737.95 126.438 735.776 127.265 733.045 127.265C730.303 127.265 728.118 126.374 726.489 124.593C724.872 122.8 724.063 120.368 724.063 117.298V116.454C724.086 112.177 724.807 108.831 726.225 106.417C727.655 103.991 729.799 102.462 732.659 101.829C734.159 101.501 735.125 101.179 735.559 100.862C735.993 100.534 736.209 100.083 736.209 99.5088H740.323C740.323 101.349 739.825 102.731 738.829 103.657C737.844 104.583 736.086 105.298 733.555 105.802C732.055 106.106 730.872 106.698 730.004 107.577C729.137 108.456 728.551 109.692 728.247 111.286C729.864 109.716 731.774 108.931 733.977 108.931ZM733.01 113.044C731.803 113.044 730.854 113.448 730.163 114.257C729.483 115.065 729.143 116.378 729.143 118.194C729.143 119.812 729.477 121.048 730.145 121.903C730.813 122.747 731.78 123.169 733.045 123.169C734.276 123.169 735.225 122.753 735.893 121.921C736.561 121.089 736.901 119.864 736.913 118.247V117.825C736.913 116.267 736.567 115.083 735.875 114.274C735.196 113.454 734.241 113.044 733.01 113.044ZM744.243 117.21C744.243 115.323 744.606 113.642 745.332 112.165C746.059 110.688 747.102 109.546 748.461 108.737C749.832 107.929 751.42 107.524 753.225 107.524C755.791 107.524 757.883 108.31 759.5 109.88C761.129 111.45 762.038 113.583 762.225 116.278L762.26 117.579C762.26 120.497 761.446 122.841 759.817 124.61C758.188 126.368 756.002 127.247 753.26 127.247C750.518 127.247 748.327 126.368 746.686 124.61C745.057 122.853 744.243 120.462 744.243 117.438V117.21ZM749.323 117.579C749.323 119.384 749.663 120.767 750.342 121.728C751.022 122.677 751.995 123.151 753.26 123.151C754.491 123.151 755.452 122.683 756.143 121.745C756.834 120.796 757.18 119.284 757.18 117.21C757.18 115.44 756.834 114.069 756.143 113.097C755.452 112.124 754.479 111.638 753.225 111.638C751.983 111.638 751.022 112.124 750.342 113.097C749.663 114.058 749.323 115.552 749.323 117.579ZM776.85 107.876H781.93V126.896H776.85V115.153L770.487 126.896H765.389V107.876H770.487V119.601L776.85 107.876ZM779.838 100.159C779.838 101.718 779.276 102.978 778.151 103.938C777.038 104.899 775.573 105.38 773.756 105.38C771.94 105.38 770.469 104.905 769.344 103.956C768.231 103.007 767.674 101.741 767.674 100.159H771.278C771.278 100.897 771.495 101.472 771.928 101.882C772.373 102.28 772.983 102.479 773.756 102.479C774.518 102.479 775.116 102.28 775.549 101.882C775.983 101.472 776.2 100.897 776.2 100.159H779.838ZM670.081 158.8C671.229 157.581 672.008 156.374 672.418 155.179C672.829 153.983 673.057 152.29 673.104 150.099L673.245 143.876H687.237V158.8H689.979V168.608H684.899V162.896H673.631V168.608H668.446V158.8H670.081ZM676.075 158.8H682.174V148.077H678.219L678.184 150.362C678.079 153.854 677.375 156.667 676.075 158.8ZM709.368 153.562C709.368 156.491 708.7 158.841 707.364 160.61C706.039 162.368 704.247 163.247 701.985 163.247C700.063 163.247 698.51 162.579 697.327 161.243V170.208H692.247V143.876H696.957L697.133 145.739C698.364 144.263 699.969 143.524 701.95 143.524C704.293 143.524 706.116 144.392 707.416 146.126C708.717 147.86 709.368 150.251 709.368 153.298V153.562ZM704.288 153.192C704.288 151.423 703.971 150.058 703.338 149.097C702.717 148.136 701.809 147.655 700.614 147.655C699.02 147.655 697.924 148.265 697.327 149.483V157.271C697.948 158.524 699.055 159.151 700.649 159.151C703.075 159.151 704.288 157.165 704.288 153.192ZM719.422 155.706L722.938 143.876H728.387L720.741 165.849L720.319 166.851C719.182 169.335 717.307 170.577 714.694 170.577C713.956 170.577 713.206 170.466 712.444 170.243V166.394L713.217 166.411C714.178 166.411 714.893 166.265 715.362 165.972C715.842 165.679 716.217 165.192 716.487 164.513L717.084 162.948L710.422 143.876H715.889L719.422 155.706ZM743.346 147.989H735.471V162.896H730.391V143.876H743.346V147.989ZM744.331 153.21C744.331 151.323 744.694 149.642 745.42 148.165C746.147 146.688 747.19 145.546 748.549 144.737C749.92 143.929 751.508 143.524 753.313 143.524C755.879 143.524 757.971 144.31 759.588 145.88C761.217 147.45 762.125 149.583 762.313 152.278L762.348 153.579C762.348 156.497 761.534 158.841 759.905 160.61C758.276 162.368 756.09 163.247 753.348 163.247C750.606 163.247 748.414 162.368 746.774 160.61C745.145 158.853 744.331 156.462 744.331 153.438V153.21ZM749.411 153.579C749.411 155.384 749.75 156.767 750.43 157.728C751.11 158.677 752.082 159.151 753.348 159.151C754.579 159.151 755.539 158.683 756.231 157.745C756.922 156.796 757.268 155.284 757.268 153.21C757.268 151.44 756.922 150.069 756.231 149.097C755.539 148.124 754.567 147.638 753.313 147.638C752.071 147.638 751.11 148.124 750.43 149.097C749.75 150.058 749.411 151.552 749.411 153.579ZM776.938 143.876H782.018V162.896H776.938V151.153L770.575 162.896H765.477V143.876H770.575V155.601L776.938 143.876ZM779.926 136.159C779.926 137.718 779.364 138.978 778.239 139.938C777.125 140.899 775.661 141.38 773.844 141.38C772.028 141.38 770.557 140.905 769.432 139.956C768.319 139.007 767.762 137.741 767.762 136.159H771.366C771.366 136.897 771.582 137.472 772.016 137.882C772.461 138.28 773.071 138.479 773.844 138.479C774.606 138.479 775.204 138.28 775.637 137.882C776.071 137.472 776.288 136.897 776.288 136.159H779.926Z" fill="white"/>
<defs>
<filter id="filter0_b_2:827" x="600.789" y="-4" width="250.239" height="250.239" filterUnits="userSpaceOnUse" color-interpolation-filters="sRGB">
<feFlood flood-opacity="0" result="BackgroundImageFix"/>
<feGaussianBlur in="BackgroundImage" stdDeviation="2"/>
<feComposite in2="SourceAlpha" operator="in" result="effect1_backgroundBlur_2:827"/>
<feBlend mode="normal" in="SourceGraphic" in2="effect1_backgroundBlur_2:827" result="shape"/>
</filter>
<filter id="filter1_b_2:827" x="294.761" y="-4" width="250.239" height="250.239" filterUnits="userSpaceOnUse" color-interpolation-filters="sRGB">
<feFlood flood-opacity="0" result="BackgroundImageFix"/>
<feGaussianBlur in="BackgroundImage" stdDeviation="2"/>
<feComposite in2="SourceAlpha" operator="in" result="effect1_backgroundBlur_2:827"/>
<feBlend mode="normal" in="SourceGraphic" in2="effect1_backgroundBlur_2:827" result="shape"/>
</filter>
<filter id="filter2_b_2:827" x="600.789" y="294.761" width="250.239" height="250.239" filterUnits="userSpaceOnUse" color-interpolation-filters="sRGB">
<feFlood flood-opacity="0" result="BackgroundImageFix"/>
<feGaussianBlur in="BackgroundImage" stdDeviation="2"/>
<feComposite in2="SourceAlpha" operator="in" result="effect1_backgroundBlur_2:827"/>
<feBlend mode="normal" in="SourceGraphic" in2="effect1_backgroundBlur_2:827" result="shape"/>
</filter>
<filter id="filter3_b_2:827" x="294.761" y="294.761" width="250.239" height="250.239" filterUnits="userSpaceOnUse" color-interpolation-filters="sRGB">
<feFlood flood-opacity="0" result="BackgroundImageFix"/>
<feGaussianBlur in="BackgroundImage" stdDeviation="2"/>
<feComposite in2="SourceAlpha" operator="in" result="effect1_backgroundBlur_2:827"/>
<feBlend mode="normal" in="SourceGraphic" in2="effect1_backgroundBlur_2:827" result="shape"/>
</filter>
<filter id="filter4_b_2:827" x="-4" y="-4" width="250.239" height="250.239" filterUnits="userSpaceOnUse" color-interpolation-filters="sRGB">
<feFlood flood-opacity="0" result="BackgroundImageFix"/>
<feGaussianBlur in="BackgroundImage" stdDeviation="2"/>
<feComposite in2="SourceAlpha" operator="in" result="effect1_backgroundBlur_2:827"/>
<feBlend mode="normal" in="SourceGraphic" in2="effect1_backgroundBlur_2:827" result="shape"/>
</filter>
<filter id="filter5_b_2:827" x="-4" y="294.761" width="250.239" height="250.239" filterUnits="userSpaceOnUse" color-interpolation-filters="sRGB">
<feFlood flood-opacity="0" result="BackgroundImageFix"/>
<feGaussianBlur in="BackgroundImage" stdDeviation="2"/>
<feComposite in2="SourceAlpha" operator="in" result="effect1_backgroundBlur_2:827"/>
<feBlend mode="normal" in="SourceGraphic" in2="effect1_backgroundBlur_2:827" result="shape"/>
</filter>
<clipPath id="clip0_2:827">
<rect width="141.306" height="31.5583" fill="white" transform="translate(348.824 104.97)"/>
</clipPath>
<clipPath id="clip1_2:827">
<rect width="163.915" height="29.0687" fill="white" transform="translate(643.548 405.347)"/>
</clipPath>
<clipPath id="clip2_2:827">
<rect width="159.878" height="27.4537" fill="white" transform="translate(339.941 406.153)"/>
</clipPath>
</defs>
</svg>
