<svg viewBox="0 0 175 40" fill="none" xmlns="http://www.w3.org/2000/svg">
    <path d="M54.8831 6.21777C54.2429 3.83724 52.3577 1.95414 49.9746 1.31459C45.6707 0.14209 28.3485 0.14209 28.3485 0.14209C28.3485 0.14209 11.0264 0.17762 6.72253 1.35012C4.3394 1.98967 2.45424 3.87277 1.81399 6.2533C0.675781 10.5525 0.675781 19.5416 0.675781 19.5416C0.675781 19.5416 0.675781 28.5308 1.84956 32.8655C2.48981 35.246 4.37497 37.1291 6.7581 37.7687C11.062 38.9412 28.3841 38.9412 28.3841 38.9412C28.3841 38.9412 45.7063 38.9412 50.0101 37.7687C52.3933 37.1291 54.2784 35.246 54.9187 32.8655C56.0925 28.5663 56.0925 19.5416 56.0925 19.5416C56.0925 19.5416 56.0569 10.5525 54.8831 6.21777Z" fill="white"/>
    <path d="M22.8354 27.8557L37.2054 19.5416L22.8354 11.2275V27.8557Z" fill="#03071E"/>
    <path d="M81.0619 35.4238C79.9593 34.6776 79.1768 33.5407 78.7144 31.9773C78.252 30.414 78.0386 28.3532 78.0386 25.7595V22.242C78.0386 19.6483 78.2876 17.5165 78.8211 15.9532C79.3546 14.3543 80.1727 13.2173 81.3109 12.5067C82.4491 11.7961 83.9075 11.4053 85.7215 11.4053C87.5 11.4053 88.9583 11.7606 90.0254 12.5067C91.0924 13.2529 91.9105 14.3898 92.4085 15.9532C92.9064 17.5165 93.1554 19.6128 93.1554 22.2065V25.724C93.1554 28.3177 92.9064 30.3785 92.4085 31.9418C91.9105 33.5051 91.128 34.6421 90.0254 35.3882C88.9227 36.0988 87.4288 36.4897 85.5792 36.4897C83.6585 36.5252 82.1646 36.1344 81.0619 35.4238ZM87.2154 31.622C87.5355 30.8404 87.6778 29.5257 87.6778 27.7492V20.1813C87.6778 18.4403 87.5355 17.1612 87.2154 16.3795C86.8953 15.5623 86.3617 15.1715 85.6148 15.1715C84.8678 15.1715 84.3699 15.5623 84.0498 16.3795C83.7296 17.1967 83.5874 18.4403 83.5874 20.1813V27.7492C83.5874 29.5257 83.7296 30.8404 84.0142 31.622C84.2987 32.4037 84.8323 32.7945 85.6148 32.7945C86.3617 32.7945 86.8953 32.4037 87.2154 31.622Z" fill="white"/>
    <path d="M165.183 25.8306V27.0741C165.183 28.6375 165.219 29.81 165.325 30.5916C165.432 31.3733 165.61 31.9418 165.894 32.2971C166.179 32.6524 166.641 32.83 167.246 32.83C168.064 32.83 168.633 32.5103 168.918 31.8707C169.238 31.2312 169.38 30.1653 169.416 28.7085L174.146 28.9928C174.182 29.206 174.182 29.4902 174.182 29.8455C174.182 32.0839 173.577 33.7538 172.332 34.8553C171.088 35.9567 169.38 36.5252 167.139 36.5252C164.436 36.5252 162.551 35.6725 161.484 34.0025C160.417 32.3326 159.848 29.7034 159.848 26.1859V21.8867C159.848 18.2626 160.417 15.5978 161.519 13.9279C162.658 12.258 164.578 11.4053 167.282 11.4053C169.167 11.4053 170.59 11.7606 171.585 12.4357C172.581 13.1107 173.293 14.1766 173.72 15.6334C174.146 17.0901 174.324 19.0798 174.324 21.638V25.795H165.183V25.8306ZM165.894 15.5979C165.61 15.9532 165.432 16.4861 165.325 17.2678C165.219 18.0494 165.183 19.2219 165.183 20.8208V22.5618H169.167V20.8208C169.167 19.2575 169.131 18.085 169.024 17.2678C168.918 16.4506 168.74 15.8821 168.455 15.5623C168.171 15.2425 167.744 15.0649 167.175 15.0649C166.57 15.1004 166.143 15.2781 165.894 15.5979Z" fill="white"/>
    <path d="M67.7593 25.3687L61.5347 2.91357H66.9767L69.1465 13.0752C69.7156 15.5979 70.1068 17.7297 70.3914 19.4707H70.5337C70.7115 18.1916 71.1383 16.0953 71.7786 13.1108L74.0194 2.91357H79.4615L73.1658 25.3332V36.0989H67.7948V25.3687H67.7593Z" fill="white"/>
    <path d="M110.798 11.8672V36.1344H106.53L106.067 33.1498H105.96C104.787 35.3883 103.044 36.5252 100.732 36.5252C99.1311 36.5252 97.9218 35.9923 97.1748 34.9264C96.3923 33.8604 96.0366 32.2261 96.0366 29.9876V11.8672H101.514V29.6679C101.514 30.7338 101.621 31.5154 101.87 31.9773C102.119 32.4392 102.51 32.6524 103.044 32.6524C103.506 32.6524 103.969 32.5103 104.395 32.2261C104.822 31.9418 105.142 31.551 105.356 31.1246V11.8672H110.798Z" fill="white"/>
    <path d="M138.862 11.8672V36.1344H134.593L134.131 33.1498H134.024C132.851 35.3883 131.108 36.5252 128.796 36.5252C127.195 36.5252 125.986 35.9923 125.239 34.9264C124.456 33.8604 124.101 32.2261 124.101 29.9876V11.8672H129.578V29.6679C129.578 30.7338 129.685 31.5154 129.934 31.9773C130.183 32.4392 130.574 32.6524 131.108 32.6524C131.57 32.6524 132.032 32.5103 132.459 32.2261C132.886 31.9418 133.206 31.551 133.42 31.1246V11.8672H138.862Z" fill="white"/>
    <path d="M125.666 7.31933H120.224V36.1344H114.888V7.31933H109.446V2.91357H125.63V7.31933H125.666Z" fill="white"/>
    <path d="M156.931 15.7399C156.611 14.2121 156.077 13.1107 155.33 12.4001C154.583 11.725 153.588 11.3697 152.271 11.3697C151.276 11.3697 150.315 11.6539 149.462 12.2224C148.572 12.7909 147.932 13.537 147.434 14.4608H147.399V1.66992H142.134V36.0988H146.652L147.221 33.7893H147.327C147.754 34.6065 148.394 35.2461 149.213 35.7435C150.066 36.2054 150.991 36.4541 152.022 36.4541C153.872 36.4541 155.224 35.6014 156.113 33.8959C156.967 32.1905 157.429 29.5257 157.429 25.9371V22.0998C157.429 19.3995 157.251 17.2677 156.931 15.7399ZM151.916 25.6529C151.916 27.4294 151.845 28.8151 151.702 29.8099C151.56 30.8048 151.311 31.5154 150.955 31.9417C150.6 32.3681 150.137 32.5813 149.568 32.5813C149.106 32.5813 148.715 32.4747 148.323 32.2615C147.932 32.0483 147.647 31.7286 147.399 31.3022V17.5164C147.576 16.8414 147.896 16.3084 148.359 15.882C148.821 15.4557 149.284 15.2425 149.817 15.2425C150.386 15.2425 150.813 15.4557 151.098 15.882C151.418 16.3084 151.596 17.0545 151.738 18.0849C151.845 19.1153 151.916 20.572 151.916 22.4907V25.6529Z" fill="white"/>
</svg>
